<?xml version="1.0" standalone="no"?>
<!DOCTYPE svg PUBLIC "-//W3C//DTD SVG 1.1//EN" "http://www.w3.org/Graphics/SVG/1.1/DTD/svg11.dtd" >
<svg xmlns="http://www.w3.org/2000/svg" xmlns:xlink="http://www.w3.org/1999/xlink" version="1.1">
<metadata></metadata>
<defs>
<font id="castamere_sansregular" horiz-adv-x="1228" >
<font-face units-per-em="2048" ascent="1638" descent="-410" />
<missing-glyph horiz-adv-x="368" />
<glyph horiz-adv-x="0" />
<glyph unicode="&#xd;" horiz-adv-x="681" />
<glyph unicode=" "  horiz-adv-x="368" />
<glyph unicode="&#x09;" horiz-adv-x="368" />
<glyph unicode="&#xa0;" horiz-adv-x="368" />
<glyph unicode="!" horiz-adv-x="471" d="M158 80q0 35 25.5 60.5t60.5 25.5t60.5 -25.5t25.5 -60.5t-25.5 -60.5t-60.5 -25.5t-60.5 25.5t-25.5 60.5zM170 475v1010h133v-1145q0 -14 14.5 -19.5t28.5 -5.5l14 2v-8q-20 -16 -59 -16h-2h-22.5t-32 9t-35.5 26.5t-26.5 55.5t-12.5 91z" />
<glyph unicode="&#x22;" horiz-adv-x="634" d="M68 1214q2 -55 36.5 -91t88.5 -40q37 0 65.5 26t28.5 60q0 37 -22.5 59.5t-57.5 22.5q-49 4 -70 -41q-12 31 -10 75t12 77q4 12 9.5 22.5t9.5 18.5t11 14t10 11.5t11.5 9.5t12.5 6t13 5t10 4t12 3l10 2l2 27q-100 -20 -141 -86q-51 -78 -41 -185zM342 1214q2 -55 37 -91 t88 -40q37 0 65.5 26t28.5 60q0 37 -22.5 59.5t-57.5 22.5q-49 4 -69 -41q-12 31 -10.5 75t12.5 77q4 12 9 22.5t9 18.5t11.5 14t10.5 11.5t11 9.5l12 6t13.5 5t10.5 4t11 3l10 2l2 27q-100 -20 -141 -86q-51 -78 -41 -185z" />
<glyph unicode="#" horiz-adv-x="1392" d="M-8 465l33 84h317l111 383h-328l35 84h317l135 469h86l-135 -469h416l135 469h86l-135 -469h330l-33 -84h-322l-110 -383h332l-35 -84h-322l-135 -469h-86l135 469h-413l-136 -469h-86l133 469h-325zM428 549h416l110 383h-415z" />
<glyph unicode="$" horiz-adv-x="1167" d="M18 240l115 141q6 -12 16.5 -34.5t46 -79t76.5 -101.5t104.5 -85t131.5 -46v663q-47 27 -133 69t-123 63.5t-79 68.5t-60 111q-47 152 29.5 279.5t248.5 178.5q59 14 117 19q0 55 14.5 73.5t46.5 18.5q10 0 22.5 -4t18.5 -8l8 -4l-2 -11q-37 10 -36 -20v-47 q111 -8 226.5 -55.5t176.5 -90.5l59 -43l-114 -157q-70 129 -162 207.5t-186 97.5v-543v-49q102 -59 142 -84t116.5 -80t108.5 -93t60.5 -95.5t28.5 -118.5q0 -92 -29.5 -163t-74.5 -110.5t-108.5 -65.5t-121 -35t-122.5 -9v-4q0 -55 -14.5 -73.5t-47.5 -18.5q-10 0 -22.5 4 t-20.5 8l-6 4l2 8q37 -8 37 23v51q-18 0 -27 2q-84 6 -162.5 32.5t-131 60.5t-92.5 67t-58 55zM272 1241q-37 -109 22.5 -183.5t213.5 -164.5v555q-166 -10 -236 -207zM580 33q164 14 239.5 139t32.5 234q-41 106 -272 251v-624z" />
<glyph unicode="%" d="M-23 1151q0 111 43 199t125 120q49 20 125 21q78 0 127 -21q82 -33 129 -121.5t47 -195t-46 -197t-126 -120.5q-55 -23 -127 -23q-70 0 -124 23q-82 31 -127.5 118.5t-45.5 196.5zM92 1151q0 -55 16.5 -120.5t60.5 -123t105 -57.5q90 0 136.5 100.5t46.5 200.5 q0 59 -16.5 123.5t-61.5 122t-109 57.5q-47 0 -83.5 -32.5t-56 -83t-29 -98.5t-9.5 -89zM100 -8h93l913 1493h-92zM659 330q0 111 44.5 199.5t123.5 119.5q55 23 127 23q70 0 125 -23q82 -31 129 -121t47 -196.5t-45 -195.5t-127 -122q-49 -20 -127 -20q-76 0 -125 20 q-82 33 -127 121t-45 195zM774 330q0 -39 10.5 -87t30 -97.5t57 -82t84.5 -32.5q63 0 107.5 55t60 119.5t15.5 124.5q0 100 -47.5 202.5t-137.5 102.5q-61 0 -105 -58.5t-59.5 -124t-15.5 -122.5z" />
<glyph unicode="&#x26;" d="M53 530q16 133 110.5 234.5t282.5 196.5q-51 100 -69.5 150t-16.5 103q0 27 10.5 65t34 86t77 83t124.5 37q154 6 207 -71t37 -163q-8 -43 -26.5 -79.5t-35 -58t-46 -43t-44 -30t-45 -22.5t-35.5 -17q123 -240 343 -653q53 131 53 475h28q29 0 66 -1t57 -1 q-20 -205 -61 -313q-41 -111 -115 -209l115 -193q18 -31 39.5 -34.5t32.5 6.5l12 12l8 -12q-20 -61 -66 -74q-158 -43 -266 152q-178 -178 -426 -158q-174 14 -290.5 176t-94.5 356zM205 616q-4 -61 10 -142t46 -168t96.5 -156t150.5 -89q27 -6 54.5 -6t52 6.5t48 13.5 t45 20.5t39 23.5t35 25.5t26.5 23.5t21 20l13 11q0 8 -383 739q-4 -2 -39 -24.5t-41 -27.5t-36 -24.5t-37 -30t-28.5 -31t-28.5 -38t-19.5 -41t-17.5 -49t-7 -56.5zM524 1217q12 -39 43 -110t41 -79q68 31 117 95.5t64.5 131t-16.5 125t-114 74.5q-72 16 -119.5 -58.5 t-15.5 -178.5z" />
<glyph unicode="'" horiz-adv-x="184" d="M-25 1376q8 -35 35 -52t62 -9q49 8 59 57q16 -20 25.5 -68.5t7.5 -78.5q0 -14 -3 -26.5t-7 -22t-7.5 -17.5t-10.5 -15t-10 -11.5t-11.5 -9.5t-11.5 -7t-11 -7t-10 -5l4 -25q90 39 117 117q31 82 -4 188q-16 53 -57.5 80t-94.5 19q-35 -10 -57.5 -42t-14.5 -65z" />
<glyph unicode="(" horiz-adv-x="778" d="M231 436v125q0 195 40 394.5t98 328.5q33 70 69.5 118t60 64.5t40.5 18.5q25 4 50 2t44 -6l18 -4v-17q-80 8 -112 -39q-100 -158 -150 -338q-61 -229 -63 -522v-125q0 -535 213 -860q14 -20 42.5 -30.5t49.5 -8.5h20v-14q-8 -2 -19 -4t-43 -7.5t-50 1.5q-16 2 -40 18 t-61 64.5t-69 117.5q-57 131 -97.5 331t-40.5 392z" />
<glyph unicode=")" horiz-adv-x="778" d="M127 -463q80 -8 113 39q213 326 213 860v125q-2 541 -207 852q-4 6 -6 8q-14 20 -43 30.5t-50 10.5l-20 -2v17q8 2 19.5 4t43 6t50.5 -2q16 -2 39.5 -18.5t60.5 -64.5t70 -118q57 -129 97 -328.5t40 -394.5v-125q0 -193 -40 -392.5t-97 -330.5q-33 -70 -70 -118 t-60.5 -64t-39.5 -18q-25 -4 -50.5 -1t-44.5 7l-18 4v14z" />
<glyph unicode="*" horiz-adv-x="512" d="M-10 1069h4l227 125q-88 51 -227 125l-4 2l43 65l2 -2q121 -94 203 -153q-2 16 -5.5 64t-6.5 98.5t-7 91.5v4h78l-2 -4q-4 -41 -7 -91.5t-6 -98.5t-6 -64q94 68 203 153l2 2l43 -65l-4 -2q-139 -74 -227 -125l227 -125h4l-43 -65l-2 2q-131 102 -203 151q0 -6 7.5 -101 t11.5 -151l2 -4h-78v4q4 55 11.5 150.5t7.5 101.5q-63 -43 -203 -151l-2 -2z" />
<glyph unicode="+" horiz-adv-x="1126" d="M78 444v99h442v440h98v-440h443v-99h-443v-444h-98v444h-442z" />
<glyph unicode="," horiz-adv-x="286" d="M27 76q-2 -37 20.5 -60.5t58.5 -23.5q53 0 70 41q12 -29 9 -75t-13 -75q-12 -37 -33.5 -59.5t-36 -27.5t-39.5 -9v-29q98 20 142 86q51 82 41 185q-4 57 -38 94t-87 37q-41 0 -67.5 -27t-26.5 -57z" />
<glyph unicode="-" horiz-adv-x="552" d="M92 444h350v99h-350v-99z" />
<glyph unicode="." horiz-adv-x="266" d="M20 76q0 35 26 60.5t60.5 25.5t59 -25.5t24.5 -60.5t-24.5 -59.5t-59 -24.5t-60.5 24.5t-26 59.5z" />
<glyph unicode="/" horiz-adv-x="737" d="M10 0h99l618 1485h-98z" />
<glyph unicode="0" horiz-adv-x="1105" d="M43 739.5q0 227.5 83 421t232 275.5q88 49 203 48.5t207 -59.5q145 -92 222 -276t77 -411.5t-82 -421t-231 -283.5q-33 -20 -83 -30.5t-85 -10.5h-33q-115 0 -201 53q-150 88 -229.5 277.5t-79.5 417zM215 725q-10 -317 81 -504.5t257 -187.5q162 0 249 186.5t87 503.5 q0 334 -86 530.5t-256 196.5q-162 0 -242 -197.5t-90 -527.5z" />
<glyph unicode="1" horiz-adv-x="634" d="M96 963v135q225 338 246 356q10 12 23.5 19.5t24.5 9.5t21.5 3t14.5 1l6 -2v-1444q0 -14 15.5 -20.5t29.5 -4.5l15 2v-10q-20 -16 -60 -16h-19t-32 10t-41 28.5t-29.5 60.5t-13.5 99v1039z" />
<glyph unicode="2" horiz-adv-x="1208" d="M152 0v121q-4 0 57 57.5t156.5 152.5t192.5 202.5t172 227.5t87 206q29 186 -21.5 326.5t-174.5 140.5q-78 0 -142.5 -41t-100.5 -98.5t-60.5 -116t-32.5 -99.5l-9 -41q-115 94 -122 105l22 37q23 37 30 48t32.5 48t43 52t47 46t59.5 45.5t67 32.5t80 25.5t90 7.5 q201 0 307 -147.5t59 -399.5q-18 -102 -98 -223t-182.5 -221.5t-200.5 -186.5t-166 -135l-68 -47h752q14 0 20.5 15.5t4.5 29.5l-2 14h10q16 -20 16 -59v-2v-21.5t-9 -30t-26.5 -33.5t-54.5 -25.5t-88 -12.5h-747z" />
<glyph unicode="3" horiz-adv-x="1126" d="M66 305l112 107q4 -14 13.5 -38t42 -85.5t71.5 -108.5t103.5 -88t134.5 -43q147 -4 248.5 99.5t89.5 283.5q-29 389 -488 389v45q70 0 140.5 13.5t146.5 44t120 97t36 161.5q-8 104 -75 185t-171 83q-78 2 -138.5 -35t-90 -91t-47 -107.5t-21.5 -90.5l-4 -39 q-115 94 -123 103q4 6 24.5 41t29.5 50t35 49t46.5 50.5t55 42t68.5 36.5t81 19.5t100 6.5q154 -6 255.5 -84t105.5 -248q2 -82 -27 -142.5t-82 -93t-103 -48t-112 -23.5q123 -8 213 -62q113 -66 162 -154.5t24 -258.5q-18 -135 -105 -226.5t-199.5 -126t-231.5 -20.5 q-98 12 -173 42t-127 81t-73.5 80.5t-56.5 87.5q-6 10 -10 16z" />
<glyph unicode="4" horiz-adv-x="1064" d="M98 504v108q285 430 533 783q33 47 67.5 69.5t55.5 22.5l18 -2v-867h119q14 0 19 14.5t3 29.5l-2 14l11 2q16 -23 16 -60q0 -8 -1 -17t-10 -27.5t-23.5 -33t-46.5 -25.5t-75 -11h-10v-463q0 -14 15.5 -20.5t29.5 -4.5l14 2v-10q-20 -16 -59 -16q-137 0 -151 147 q-2 18 -3 37v328h-520zM184 618h434v611z" />
<glyph unicode="5" horiz-adv-x="1085" d="M84 328l158 78q0 -8 -1 -22.5t2 -53.5t11 -75t28.5 -79t51.5 -72.5t82 -48t116 -14.5q125 10 203 85t96.5 173t7 192.5t-47.5 151.5q-53 82 -145.5 102.5t-268.5 20.5h-217v659h704q14 0 19.5 14.5t5.5 30.5l-2 15h8q16 -20 16 -60v-2v-21t-9 -29.5t-25.5 -35t-53.5 -26 t-88 -11.5h-430v-464q274 0 328 -7q215 -23 306 -149.5t46 -343.5q-37 -172 -170 -260t-301 -84q-66 2 -121 14t-95 38t-69.5 48.5t-54 61.5t-37 60.5t-31 62t-22.5 51.5z" />
<glyph unicode="6" horiz-adv-x="1105" d="M91 670q-1 -135 24.5 -263t94.5 -229.5t173 -150.5q61 -25 161.5 -31t215.5 31q229 90 258 413q16 242 -120 381.5t-384 104.5q-86 -8 -166 -82t-94 -123q8 125 31.5 243.5t61.5 230.5t98.5 182.5t136.5 78.5q49 2 89 -13.5t66.5 -42t46 -59t30.5 -66.5t17.5 -62.5 t8.5 -45.5l2 -18l114 108q-82 246 -403 228q-317 -12 -434 -547q-27 -133 -28 -268zM256 659q2 20 38 65.5t114.5 93.5t166.5 52q117 6 184.5 -34.5t106.5 -147.5q41 -135 20.5 -276.5t-75.5 -218.5q-35 -47 -63.5 -75t-86 -50.5t-131.5 -18.5q-133 10 -210.5 173t-63.5 437 z" />
<glyph unicode="7" horiz-adv-x="1062" d="M133 1360v2v19.5t9.5 30t26.5 34.5t54 26.5t88 12.5h613v-121l-35 -49q-37 -49 -98.5 -162t-120 -263.5t-101.5 -388t-43 -501.5h-192q0 160 48 359.5t115.5 368.5t135 316.5t117.5 231.5l47 84h-615q-14 0 -20 -14.5t-4 -30.5l2 -15h-10q-16 20 -17 60z" />
<glyph unicode="8" horiz-adv-x="1085" d="M90 395q27 217 311 373q-66 33 -90 46t-62 42t-57.5 63.5t-35.5 88.5q-47 156 31.5 294t246.5 175q170 37 307.5 -66.5t141.5 -253.5q2 -70 -29 -133t-79 -106.5t-75.5 -62t-52.5 -32.5q162 -102 246 -205.5t84 -234.5q0 -109 -36 -188.5t-92 -117.5t-127 -62.5 t-138.5 -22.5t-126.5 2q-158 12 -272.5 116.5t-94.5 284.5zM190 334q-6 -111 88.5 -211.5t217.5 -102.5q96 -2 167.5 38t102.5 100.5t42 128t-15 121.5q-29 72 -109 159.5t-158 132.5q-4 2 -22.5 13.5t-28.5 15.5q-270 -170 -285 -395zM291 1257q-31 -127 29.5 -201.5 t230.5 -174.5q16 -8 49 -29q96 76 146.5 164t49.5 164.5t-34 141t-100.5 101.5t-153.5 35q-70 -2 -134.5 -60.5t-82.5 -140.5z" />
<glyph unicode="9" horiz-adv-x="1064" d="M92 1040q-16 -242 120 -381t384 -104q86 8 166 82t94 123q-8 -125 -31.5 -244t-61.5 -230.5t-98.5 -182t-136.5 -78.5q-49 -2 -89 13t-66.5 41.5t-46 59.5t-30.5 67t-17.5 62.5t-8.5 46.5l-2 17l-114 -109q82 -246 403 -227q317 12 434 547q27 133 28 268t-24.5 263 t-94.5 229.5t-173 150.5q-61 25 -161.5 31t-215.5 -31q-229 -90 -258 -414zM223.5 1069q20.5 141 75.5 219q35 47 63.5 75t86 50.5t131.5 18.5q133 -10 210.5 -173.5t63.5 -437.5q-2 -20 -38 -65t-114.5 -93.5t-166.5 -52.5q-117 -6 -184.5 35t-106.5 148q-41 135 -20.5 276 z" />
<glyph unicode=":" horiz-adv-x="348" d="M86 76q0 35 24.5 59.5t59.5 24.5t59.5 -24.5t24.5 -59.5t-24.5 -59.5t-59.5 -24.5t-59.5 24.5t-24.5 59.5zM86 573.5q0 34.5 24.5 59t59.5 24.5t59.5 -24.5t24.5 -59t-24.5 -59.5t-59.5 -25t-59.5 25t-24.5 59.5z" />
<glyph unicode=";" horiz-adv-x="430" d="M115 78q0 -41 22.5 -62.5t57.5 -21.5q49 0 69 41q12 -31 10 -75t-12 -75q-12 -37 -33.5 -59.5t-35.5 -27.5t-39 -9l-2 -29q98 20 141 86q51 78 41 187q-4 55 -38 92t-87 37q-37 0 -65.5 -24.5t-28.5 -59.5zM133 577.5q0 34.5 24.5 60.5t59.5 26t59.5 -26t24.5 -60.5 t-24.5 -59t-59.5 -24.5t-59.5 24.5t-24.5 59z" />
<glyph unicode="&#x3c;" horiz-adv-x="921" d="M74 489l612 -489h111l-615 489l615 494h-111z" />
<glyph unicode="=" d="M127 240h997v100h-997v-100zM127 659h997v99h-997v-99z" />
<glyph unicode="&#x3e;" horiz-adv-x="923" d="M125 0l614 489l-614 494h111l612 -494l-612 -489h-111z" />
<glyph unicode="?" horiz-adv-x="737" d="M121 1356q2 6 8 14t27.5 31.5t46 41t65.5 32t86 14.5q139 0 227.5 -102.5t71.5 -313.5q-14 -203 -192 -244q-20 -4 -56 -8t-53.5 -7t-33 -17.5t-15.5 -38.5v-416q0 -14 14.5 -19.5t30.5 -3.5h14v-8q-20 -16 -59 -16h-2h-22.5t-32 9t-35.5 26.5t-26.5 55.5t-12.5 91v193 v47q0 33 8 57.5t15.5 36.5t26 19.5t25.5 9.5t30.5 3t25.5 1q12 0 45 2t60.5 5t54.5 11q61 16 61 295q0 100 -42 203.5t-115 103.5q-61 0 -106.5 -46t-59.5 -91l-15 -47zM158 82q0 35 25.5 59.5t60.5 24.5t60.5 -24.5t25.5 -59.5t-25.5 -60.5t-60.5 -25.5t-60.5 25.5 t-25.5 60.5z" />
<glyph unicode="@" horiz-adv-x="1454" d="M13 721q1 139 55 283q49 137 142 238t200.5 150.5t201 71t174.5 21.5q301 0 482 -180q182 -180 178 -435q-2 -229 -109 -346q-49 -55 -84.5 -88t-127 -71.5t-199.5 -36.5q-119 0 -107 84v6q8 35 19 90q-18 0 -40 -29.5t-40.5 -63.5t-59.5 -60.5t-96 -20.5 q-98 8 -159.5 67.5t-80 141.5t-4.5 180q23 156 139.5 276.5t254.5 110.5q47 -4 91 -24.5t65.5 -37t27.5 -26.5q8 57 38 84t54 24l27 -2l-129 -710q-6 -43 47 -47q90 -6 211 86q45 37 84 80q117 131 116 354q0 100 -45 215q-39 90 -151 199q-49 47 -155.5 87t-246.5 46 q-55 2 -133 -15.5t-180 -61.5t-195.5 -146.5t-142.5 -245.5q-137 -406 146 -733q84 -94 214 -141.5t238 -49.5q139 -2 298 57t239 127v-65q-18 -18 -91 -59.5t-207 -81t-253 -31.5q-305 20 -483 188q-51 49 -97.5 121t-86.5 176.5t-39 243.5zM461 676q-12 -166 51 -224.5 t139 -48.5q29 4 58.5 39t62.5 69t72 34q72 381 84 440q-27 27 -84.5 56.5t-112.5 27.5q-102 -2 -180 -125t-90 -268z" />
<glyph unicode="A" horiz-adv-x="1208" d="M39 0l498 1442q-2 12 -15.5 17t-25.5 3h-15l-2 11q2 2 7.5 4t21.5 5t33 3q14 0 33.5 -5t58 -42t61.5 -105l510 -1333q-2 2 -16 0t-43 5t-56.5 19.5t-57.5 44t-48 76.5q-78 217 -162 457h-438l-188 -602h-156zM410 690h381l-201 590z" />
<glyph unicode="B" horiz-adv-x="1163" d="M102 1460v10q20 14 60 15h442q72 0 137.5 -13.5t133 -46t113.5 -100.5t59 -164q3 -22 3 -42q0 -93 -60 -164q-72 -87 -175 -121q125 -33 214 -130.5t91 -246.5v-7q0 -206 -118 -318q-120 -114 -324 -124q-145 -8 -248 -8h-264q-16 0 -30.5 4t-20.5 8l-9 4l3 9 q11 -2 20 -2q35 0 35 26v1385q0 14 -15.5 20t-29.5 6h-17zM317 82q256 0 342 8q109 10 144 29q96 49 129 258q7 47 7 89q0 110 -47 194q-65 116 -196 131q-97 13 -281 13q-46 0 -98 -1v-721zM317 862q51 -1 101 -1q99 0 190 5q123 6 172 37q74 45 90 154q6 41 6 78 q0 111 -57 181q-76 93 -225 103q-54 4 -277 4v-561z" />
<glyph unicode="C" horiz-adv-x="1003" d="M51 776q0 293 112.5 479.5t268.5 214.5q82 16 152 16q95 0 168 -29q127 -50 198 -140l-110 -129q-4 12 -11.5 30.5t-35 64.5t-62.5 79q-35 34 -95 56q-42 16 -89 15q-21 0 -43 -3q-86 -12 -145.5 -87t-84 -188t-34 -200t-9.5 -175q0 -57 2.5 -109.5t10.5 -141.5 t26.5 -160.5t46 -143t77 -116t110.5 -54.5q24 -3 46 -3q46 0 86 14q60 20 96 57t61.5 76t35.5 67l11 27q104 -119 110 -129q-70 -88 -198 -136q-75 -28 -171 -28q-68 0 -147 14q-383 68 -383 762z" />
<glyph unicode="D" d="M92 16v9q12 -2 22 -2q37 0 38 24v1387q0 16 -14.5 22t-31.5 6l-14 -2v8q20 16 60 17q457 0 598 -43q238 -74 331 -250q79 -149 78 -388q0 -44 -2 -91q-18 -326 -137 -502t-315 -201q-59 -6 -154.5 -9t-168.5 -3t-153 2h-77q-16 0 -32 4t-22 8zM311 72h66.5h76t68.5 3 t80 9t73 18.5t81 30.5q205 96 223 619q1 29 1 58q0 168 -50 308q-58 164 -189 230q-74 37 -171 55t-136 19t-123 1v-1351z" />
<glyph unicode="E" horiz-adv-x="1024" d="M80 18v9q12 -2 21 -2q36 0 36 24v1389q0 14 -14 20t-29 4l-14 -2v10q20 14 57 15h641q63 0 103.5 -15.5t53.5 -40t15 -37t2 -28.5v-4q0 -16 -4 -30.5t-8 -20.5l-4 -6h-8q2 12 2 21q0 36 -25 36h-608v-516h469q0 -4 -2 -9.5t-12.5 -20.5t-26.5 -26.5t-52 -21.5t-83 -10 h-293v-629h608q14 0 19.5 14.5t5.5 30.5l-2 14h8q16 -20 16 -59v-2v-21.5t-9 -30t-26.5 -33.5t-54.5 -25.5t-88 -12.5h-637q-16 0 -30.5 4t-20.5 8z" />
<glyph unicode="F" horiz-adv-x="942" d="M43 12q20 -16 59 -16h2h26.5t39.5 9t45 26.5t33.5 55.5t15.5 91v580h291q47 0 83 9t53.5 22.5t26.5 25.5t11 21l2 10h-467v512h606q14 0 19.5 -14.5t3.5 -28.5v-15h8q16 20 17 58v2v21.5t-9.5 30t-26 34.5t-53.5 25.5t-88 13.5h-637q-16 0 -31.5 -3t-21.5 -7l-6 -5v-10 h16.5t26.5 -13t16 -42v-1362q0 -10 -15 -16.5t-30 -6.5h-14z" />
<glyph unicode="G" d="M78 536q-12 90 -12 178q0 93 14 185q43 270 171 423t331 161q48 3 88 3q55 0 98 -5q74 -8 137.5 -41t102.5 -66t110 -104l-119 -137q-4 12 -13 32.5t-43 72.5t-74 92t-107 71q-64 29 -132 29h-9q-133 -6 -231.5 -183.5t-127.5 -415.5q-6 -94 -8 -197v-16q0 -96 22 -191 q25 -103 62 -186t108.5 -136.5t163.5 -55.5h9q77 0 144 33q71 35 111.5 87t70.5 105.5t42 90.5l10 36v351h-407q-49 0 -85 9t-52.5 22.5t-26.5 26.5t-12 21v11h739v-844q-2 4 -16.5 0t-38 7t-46 25.5t-39 55.5t-16.5 96q-122 -188 -369 -188q-84 0 -182 22 q-152 35 -247 185.5t-121 334.5z" />
<glyph unicode="H" horiz-adv-x="1167" d="M53 1470q23 14 60 15h2q18 0 35.5 -3t50 -16.5t52 -55.5t19.5 -107v-459h635v444q0 55 17.5 95t40 58.5t46 30t40.5 11.5l16 2v-1444q0 -14 15.5 -19.5t29.5 -5.5l14 2v-8q-20 -16 -57 -16h-2h-26.5t-39 9t-45 26.5t-34 55.5t-15.5 91v574h-635v-557q0 -84 -39.5 -132.5 t-78.5 -54.5l-39 -6v1438q0 14 -14.5 19t-30.5 5l-15 -2z" />
<glyph unicode="I" horiz-adv-x="430" d="M72 1460v10q20 16 59 17h2h26.5t39 -9.5t44 -26.5t33 -56t15.5 -92v-1110q0 -84 -40 -132.5t-79 -54.5l-41 -6v1440q0 14 -14.5 19t-30.5 3z" />
<glyph unicode="J" horiz-adv-x="778" d="M47 328l186 82q-2 -14 -5 -39t-4 -87v-13q0 -55 8 -98q8 -48 36.5 -87t75.5 -39q88 0 113.5 28.5t25.5 139.5v1221q0 14 -16 20t-33 4l-18 -2l-2 10q25 16 67 17h2q23 0 42.5 -3t55 -16.5t58.5 -56.5t23 -109v-1005q0 -147 -86.5 -224t-215.5 -77q-147 0 -207.5 74.5 t-105.5 259.5z" />
<glyph unicode="K" horiz-adv-x="1024" d="M68 1460v10q20 16 59 17h2q18 0 35.5 -3t49.5 -17.5t51.5 -57.5t19.5 -109v-462l428 647h215l-502 -670l539 -815q-16 -4 -43 -7h-7q-27 -1 -81 17q-60 20 -95 76l-415 621l-39 -50v-657h-156l-2 1438q0 14 -14.5 20t-30.5 4z" />
<glyph unicode="L" horiz-adv-x="1003" d="M84 16l2 9q12 -2 22 -2q37 0 37 24v1393q0 14 -15 19t-30 3l-14 -2l-2 8q20 16 59 17h2q20 2 38 -1t50.5 -17.5t52 -56.5t19.5 -107v-1180h610q14 0 19.5 14.5t3.5 30.5v14h8q16 -20 17 -59v-2v-21.5t-9.5 -29t-27 -33.5t-54 -25.5t-88.5 -11.5h-639q-16 0 -31.5 4 t-23.5 8z" />
<glyph unicode="M" horiz-adv-x="1310" d="M43 1462v8q23 14 61 15q125 0 177 -123q37 -90 195.5 -523t174.5 -481q14 43 175 478.5t198 525.5q51 123 176 123q16 0 31.5 -4t21.5 -8l7 -5v-8q-12 2 -22 2q-37 0 -38 -24v-1438h-16t-37 9t-47.5 25.5t-36.5 57.5t-16 96v906l-316 -906h-158l-311 899v-899 q0 -84 -40 -131t-79 -53l-41 -6v1436q0 18 -14 25t-31 5z" />
<glyph unicode="N" d="M61 1468q23 16 62 17h13t15.5 -1t15.5 -3t17 -5t17.5 -9.5t20.5 -15.5t20.5 -21.5t24 -30t26.5 -37.5q18 -27 306 -508t341 -567v1009q0 84 40 131.5t81 51.5l39 6v-1434q0 -14 15 -19t30 -3h14v-9q-20 -16 -59 -16q-109 0 -174 98l-643 1041v-946q0 -57 -16.5 -98.5 t-40 -60t-47 -27.5t-40.5 -11h-16v1438q0 14 -14.5 19t-30.5 5l-15 -2z" />
<glyph unicode="O" d="M37 739q0 240 86 432.5t242 266.5q119 47 239 47h6q123 0 248 -47q154 -74 240 -266.5t86 -432.5q0 -244 -86 -435t-240 -261q-106 -47 -248 -47q-145 0 -245 47q-156 68 -242 260.5t-86 435.5zM213 739q0 -158 43 -313.5t137 -269t217 -113.5h6q119 0 212.5 116.5 t136.5 272.5t43 307q0 154 -43 308.5t-137.5 269.5t-217.5 115h-6q-123 0 -215 -113t-134 -266.5t-42 -313.5z" />
<glyph unicode="P" horiz-adv-x="983" d="M33 1466q23 16 61 17q371 0 453 -6q88 -6 154.5 -21.5t134 -51.5t108.5 -103.5t49 -165.5q1 -13 1 -26q0 -106 -74 -180q-82 -83 -185 -116q-99 -28 -287 -28q-87 0 -194 6v-617q0 -66 -20.5 -107.5t-53.5 -55t-51 -16.5t-37 -3h-2q-16 0 -30.5 4t-18.5 8l-6 4v10 q12 -2 22 -2q35 0 35 23v1395q0 14 -14.5 20t-28.5 4l-14 -2zM254 854q82 -6 283 -6q102 0 188 59.5t92 167.5q1 17 1 34q0 150 -66 218q-72 76 -232 86q-102 6 -266 6v-565z" />
<glyph unicode="Q" horiz-adv-x="1249" d="M41 739q0 244 86 436.5t242 260.5q102 49 247 49q147 0 248 -49q154 -70 242 -262.5t88 -434.5q0 -240 -88 -432t-242 -268q-57 -23 -137 -36t-104 -13h-60q-59 -12 -128.5 -47t-110.5 -88q159 62 253 62q9 0 17 -1q96 -6 157.5 -62.5t89 -122t63.5 -119.5t83 -54 q70 0 136.5 65.5t97.5 130.5l32 66l111 -119q-12 -18 -34.5 -44t-89 -75t-130.5 -57q-45 -8 -74 -10q-7 -1 -16 -1q-26 0 -70 5q-57 6 -113.5 44t-109.5 105q-98 123 -217 134q-16 1 -34 1q-115 0 -312 -59q23 109 128 181.5t161 84.5q-61 18 -84 29q-156 74 -242 267.5 t-86 432.5zM219 745q0 -156 42 -313.5t133 -275t208 -117.5q135 0 233.5 120t138.5 273.5t40 306.5q0 168 -46 325t-138.5 262.5t-207 105.5t-209 -99.5t-144.5 -255.5t-50 -332z" />
<glyph unicode="R" horiz-adv-x="1269" d="M57 6l2 10q14 -2 24 -2q35 0 36 25v1397q0 14 -15.5 19t-29.5 3h-17v8q25 16 64 17q412 0 454 -2q98 -4 173 -22.5t140.5 -57.5t99.5 -109.5t34 -169.5q-2 -135 -105.5 -216t-248.5 -87q141 0 229 -88t102 -270q3 -37 3 -83q0 -38 -2 -81q-1 -21 -1 -42q-1 -73 13 -141 q18 -87 65 -87q35 0 61.5 35.5t35.5 72.5l8 35l80 -90q-50 -74 -144 -90q-17 -3 -32 -2q-76 0 -142 60q-80 73 -80 222q0 119 -23.5 228.5t-81 192.5t-136.5 93q-90 10 -344 11v-619q0 -53 -15.5 -92t-34 -56.5t-45 -26.5t-39 -9h-26.5h-2q-16 0 -31.5 4t-22.5 8zM276 848 q42 -2 85 -2q102 0 214 10q240 20 269 219q5 35 5 67q0 112 -63 178q-81 85 -239 99q-88 8 -179 8q-46 0 -92 -2v-577z" />
<glyph unicode="S" horiz-adv-x="1105" d="M47 244l117 141q6 -14 17.5 -35.5t49 -80t79.5 -103.5t109.5 -83t139.5 -40h17q174 0 262 116q61 82 62 162q0 39 -15 78q-25 63 -119 142.5t-197 140.5q-55 33 -141 77t-128 67.5t-86 72.5t-62 115q-17 56 -17 108q-1 90 49 170q78 126 250 174q71 18 140 18q26 0 50 -2 q94 -9 177.5 -40t147 -65t100.5 -60l36 -27l-114 -155q-82 167 -214 245q-89 52 -175 53q-41 0 -81 -12q-124 -37 -186 -178q-18 -41 -20 -78q0 -3 -1 -7q0 -32 18 -64q20 -34 39.5 -59t68.5 -60t79.5 -54.5t98.5 -58.5q248 -150 322 -213q149 -128 149 -268v-6 q0 -92 -29.5 -162t-75.5 -110t-105.5 -66.5t-122 -32.5t-122.5 -10q-20 -1 -38 -1q-37 0 -68 5q-84 8 -163 36.5t-130 62.5t-91 68t-58 56z" />
<glyph unicode="T" horiz-adv-x="860" d="M31 1348v4q0 20 3 33.5t17.5 36t54 35.5t103.5 13h596q14 0 20 15.5t6 30.5l-2 16h9q16 -27 16 -64q0 -63 -35 -88q-43 -35 -143 -37h-156h2v-1146q0 -59 -16.5 -101.5t-40 -61t-48 -27.5t-40.5 -9h-17v1345h-282q-14 0 -19.5 -14t-5.5 -26l2 -15l-8 -2q-16 25 -16 62z " />
<glyph unicode="U" d="M82 1458v10q20 16 59 17h2h26.5t39.5 -9.5t45 -26.5t33.5 -56t15.5 -93v-749q0 -178 27.5 -287.5t79.5 -155.5q50 -47 124 -60q35 -6 76 -6q43 0 92 7q74 8 130.5 44t85 79t46 98.5t21.5 90t4 65.5v1059h141v-1045q0 -231 -143 -358q-53 -47 -118.5 -67.5t-206.5 -20.5 q-12 1 -25 1q-20 0 -45 -2q-9 -1 -19 -1q-33 0 -70 8q-48 10 -98.5 22.5t-96.5 47t-83 81t-58.5 123t-21.5 175.5l-2 989q0 14 -15 19t-30 3z" />
<glyph unicode="V" horiz-adv-x="1290" d="M-23 1427q23 33 76 54q10 4 30.5 4t52.5 -6t63.5 -37t50.5 -82l414 -1192l456 1317h191l-576 -1485h-174l-506 1399q-8 20 -25.5 24t-31.5 -2l-14 -6z" />
<glyph unicode="W" horiz-adv-x="1597" d="M-55 1450q27 20 61 29q31 4 67 4t73.5 -37t54.5 -105l274 -1161l248 1243h174l248 -1243l274 1163q16 68 54 104t73 36t66 -2q16 -4 31.5 -11.5t23.5 -11.5l6 -6l-2 -14q-18 11 -32 11q-23 0 -33 -30l-371 -1419h-174l-250 1171l-250 -1171h-176l-373 1417 q-6 20 -22.5 25.5t-30.5 -0.5l-12 -4z" />
<glyph unicode="X" d="M-45 0l561 750l-438 653q-14 16 -29.5 16t-28.5 -10l-14 -8l-4 6q4 18 47 49q8 6 19.5 12.5t38 11.5t51 0t57.5 -30t61 -72l326 -528l418 635h203l-523 -735l545 -750q-6 -2 -15 -4t-41 -2t-62.5 11t-73.5 44t-82 84l-361 498l-448 -631h-207z" />
<glyph unicode="Y" horiz-adv-x="962" d="M-43 1419q10 29 53 54q14 8 32.5 11t43.5 0t50.5 -23.5t43.5 -55.5l279 -586l321 666h181l-435 -754l-2 -563q0 -84 -33.5 -127t-68.5 -45h-33v735l-362 660q-12 27 -27.5 30.5t-24.5 -4.5l-10 -8z" />
<glyph unicode="Z" d="M29 0v121q821 1174 874 1239h-727q-14 0 -19 -14.5t-5 -30.5l2 -15h-9q-16 20 -16 60v2v19.5t9 30t25.5 34.5t53.5 25.5t88 13.5h797v-117l-893 -1243h915q14 0 19.5 15.5t3.5 29.5v14h8q16 -20 16 -59v-2v-19.5t-9 -30t-26.5 -34.5t-54.5 -26.5t-88 -12.5h-964z" />
<glyph unicode="[" horiz-adv-x="567" d="M231 -305v1614q0 27 2.5 50t6.5 39.5t10 31t12 22.5t13.5 15.5t13.5 11.5t13 7t11 3t11 2h4q23 2 50.5 -1t43.5 -7l18 -2v-15q-112 8 -112 -39v-1849q0 -20 28.5 -30.5t57.5 -10.5h26v-14q-6 -2 -18 -4t-42 -5t-52 -1q-57 10 -78 65q-18 45 -19 117z" />
<glyph unicode="\" horiz-adv-x="737" d="M10 1485l619 -1485h98l-618 1485h-99z" />
<glyph unicode="]" horiz-adv-x="567" d="M127 -463q113 -6 113 41v1849q0 20 -28 30.5t-56 8.5h-29v15q6 2 18.5 4t42 5t52.5 1h6q4 -2 8 -2t11 -3t13.5 -7t13.5 -11.5t13 -15.5t12.5 -22.5t10.5 -31t6 -40t2 -49.5v-1614q0 -172 -94 -182h-2q-23 -2 -50.5 1t-46.5 7l-16 2v14z" />
<glyph unicode="_" horiz-adv-x="983" d="M0 0h983v53h-983v-53z" />
<glyph unicode="`" d="M395 1341q154 -180 318 -274l20 12q-51 41 -131 164q-25 35 -44 78t-28 68l-8 26z" />
<glyph unicode="a" horiz-adv-x="839" d="M60 185q-10 42 -10 88q0 49 11 102q18 82 86 129t141.5 60.5t152.5 31.5t110 47q43 39 49 105q1 11 1 22q1 54 -25 98q-30 54 -87 62q-11 2 -23 2q-31 0 -62 -12q-42 -16 -71.5 -43t-53 -54.5t-33.5 -48.5l-13 -18l-86 96q6 6 17.5 16.5t50.5 39t78 43t103 29.5 q31 7 60 8q32 0 62 -9q236 -41 236 -334v-606q0 -14 14 -19.5t29 -3.5l14 2l2 -10q-20 -14 -59 -14h-2q-12 0 -22.5 1t-32 10t-36 26.5t-26.5 55.5t-12 91q-27 0 -59 -37t-71.5 -82t-84.5 -57q-15 -9 -66 -9q-26 0 -60 2q-104 7 -151 54q-51 49 -71 136zM186 295 q-2 -23 -2 -43q0 -123 72 -160q28 -15 64 -15q20 1 42 5q64 12 97 51q29 39 69.5 62.5t67.5 27.5l27 4v420q-14 -43 -62.5 -65.5t-124.5 -43t-121 -49.5q-117 -72 -129 -194z" />
<glyph unicode="b" horiz-adv-x="921" d="M47 1483v8q20 16 59 16h3h22t31.5 -9t36 -26.5t27 -55.5t12.5 -91v-479q12 18 36.5 41.5t83 57.5t115.5 38q13 1 26 1q80 0 144 -33q74 -38 113 -98t62 -139q24 -80 29 -142q4 -45 3 -84v-31q-4 -98 -19.5 -170t-48 -138.5t-96 -106.5t-154.5 -48q-17 -2 -34 -2 q-40 0 -72 11q-45 15 -69.5 42t-42 53.5t-36 49t-40.5 26.5q0 -55 -13.5 -94t-33 -54.5t-39 -23.5t-33.5 -6h-13v1464q0 14 -14 19.5t-31 3.5h-14zM238 221q55 -4 115.5 -66.5t101.5 -68.5q17 -5 36 -6q17 0 35 5q38 9 73.5 33.5t65.5 95t46 183.5q8 54 8 106q0 121 -44 232 q-63 158 -188 160h-4q-130 0 -245 -115v-559z" />
<glyph unicode="c" horiz-adv-x="737" d="M45 485v4v3q14 371 213 460q70 33 140.5 33t121.5 -21.5t93 -48t63 -49.5l20 -22l-86 -99q-2 8 -8 21.5t-26.5 47.5t-45.5 58q-24 26 -63 44q-32 15 -65 15q-7 0 -15 -1q-95 -12 -149 -139q-52 -122 -52 -281v-12v-9v-8v-12q0 -161 52 -284q54 -128 149 -138q8 -1 15 -1 q33 0 65 14q39 18 63.5 45.5t44 56t27.5 49.5l8 20l86 -98l-22.5 -22.5t-60.5 -47t-94 -51.5q-47 -18 -119 -19h-5q-69 0 -137 32q-199 88 -213 460z" />
<glyph unicode="d" horiz-adv-x="921" d="M53 467q-1 15 -1 31q0 40 4 84q5 62 29 138.5t62.5 135.5t112.5 96q64 32 144 32q13 0 26 -1q57 -4 115.5 -40t83 -61.5t39.5 -43.5v487q0 55 13 95t32.5 55.5t39 22.5t33.5 5h13l2 -342v-1120q0 -25 32 -25q8 0 19 2v-12q-31 -12 -51 -12q-10 0 -19.5 1t-32 11t-39 28.5 t-29.5 58.5t-13 95q-27 -4 -51.5 -38.5t-44.5 -71.5q-19 -36 -69 -64q-41 -23 -100 -23q-13 0 -26 1q-90 8 -154.5 49t-98.5 109.5t-50.5 143.5t-20.5 173zM193 412q31 -208 103 -274q59 -54 130 -54q15 0 31 2q39 4 96 74.5t115 75.5v536q-121 121 -244 121h-8 q-124 -3 -186 -151q-44 -106 -45 -228q1 -49 8 -102z" />
<glyph unicode="e" horiz-adv-x="798" d="M59 483q0 225 85 363.5t264 138.5q162 0 257 -139t95 -354h-563q0 -193 49 -313t153 -128h12q59 0 108 36q54 40 75 81l20 43l88 -96q-8 -8 -21 -20.5t-59 -40.5q-47 -28 -95 -44q-45 -16 -112 -15h-9q-72 1 -142 30q-205 84 -205 458zM197 553h424q-2 143 -59.5 260 t-151.5 119q-94 -2 -151.5 -118t-61.5 -261z" />
<glyph unicode="f" horiz-adv-x="696" d="M39 887v2v18t9 23.5t26.5 26t54.5 18.5t90 8h6q0 299 101 399q45 45 105.5 74t103.5 36t84 10t43 3l-19 -145q-29 8 -65 8q-48 0 -107 -14q-109 -25 -113 -371h228q14 0 19 14.5t5 28.5l-2 14l8 2q16 -20 17 -59v-2v-17.5t-9.5 -21.5t-25.5 -25.5t-52 -19.5t-87 -10h-101 v-178v-537q0 -66 -16 -106.5t-43 -54t-41 -16.5t-31 -3h-2q-16 0 -30.5 4t-20.5 8l-6 4v8q12 -2 21 -2q36 0 36 25v848h-139q-14 0 -19.5 -17.5t-5.5 -33.5l2 -17l-8 -2q-16 33 -16 70z" />
<glyph unicode="g" horiz-adv-x="901" d="M66 475v28q0 42 4 87q6 59 29.5 136t62.5 134.5t112 93.5q64 32 143 32q13 0 27 -1q57 -4 118 -41t83.5 -59.5t36.5 -40.5q4 45 19.5 75.5t32 43t33.5 20.5t29.5 5t16.5 -1v-854q-12 -313 -113.5 -451.5t-238.5 -152.5q-19 -2 -37 -2q-27 0 -53 4q-43 6 -74 15.5 t-60.5 34t-47 39.5t-39 49t-28.5 46.5t-24.5 47t-19.5 38.5l129 80q2 -12 5 -31.5t18.5 -68.5t36 -87t61.5 -69t90 -31q76 0 140.5 92.5t95.5 230.5q27 116 27 233q0 23 -1 45q-23 -4 -41 -29t-35.5 -55.5t-41 -59t-68.5 -45.5q-34 -14 -76 -14q-15 0 -31 2 q-313 31 -321 481zM209 420q12 -113 42 -187.5t68.5 -104.5t73.5 -39q21 -5 43 -5q15 0 31 2q29 4 55.5 28.5t45 52.5t49 51.5t65.5 25.5v526l-8 8q-8 6 -21.5 17.5t-31 25t-40 27.5t-46 25.5t-51 17.5t-54.5 6q-84 -2 -140.5 -78t-75.5 -183q-11 -61 -11 -123q0 -46 6 -93z " />
<glyph unicode="h" horiz-adv-x="839" d="M47 1483v8q20 16 59 16h3h22t32.5 -9t37 -26.5t27 -56.5t12.5 -92v-465q57 115 204 127q17 1 33 1q137 0 208 -90q79 -102 79 -239v-661q-2 2 -14.5 -1t-32 6t-39 23.5t-33.5 52.5t-14 91v510q-2 74 -47 144.5t-123 72.5h-8q-128 0 -213 -129v-766h-134v1460 q0 14 -14 19.5t-31 3.5h-14z" />
<glyph unicode="i" horiz-adv-x="348" d="M49 958v7q18 20 53 20h2q18 0 33 -3t41.5 -16.5t43 -55.5t16.5 -107v-762q0 -12 14 -17.5t27 -3.5h14v-14q-20 -14 -55 -14h-2q-16 0 -31 3t-42.5 17.5t-44 55.5t-16.5 106v172v592q0 12 -13 17.5t-28 2.5h-12zM88 1196q0 31 25.5 56.5t56.5 25.5q35 0 61.5 -25.5 t26.5 -56.5q0 -37 -26.5 -63.5t-61.5 -26.5q-31 0 -56.5 26.5t-25.5 63.5z" />
<glyph unicode="j" horiz-adv-x="512" d="M-131 -225l127 63q-2 -10 -4 -27.5t-2 -63.5t5 -82t24.5 -68.5t52.5 -38.5q20 -4 36 -4q36 0 57 18q30 27 30 113v1251q0 14 -14.5 19.5t-28.5 2.5h-15l-2 9q23 18 60 18q98 0 122 -96q11 -37 11 -86v-1057q0 -113 -65.5 -173t-156.5 -60q-104 0 -157 62.5t-80 199.5z M150 1192q0 37 23.5 62.5t59.5 25.5q35 0 58.5 -25.5t23.5 -62.5q0 -33 -23.5 -57.5t-58.5 -24.5q-37 0 -60 24.5t-23 57.5z" />
<glyph unicode="k" horiz-adv-x="778" d="M27 1483v8q20 16 59 16h2h21.5t32 -9t37 -26.5t26.5 -56.5t12 -92v-672l295 332h199q-172 -174 -357 -362l410 -619q-4 -2 -12.5 -4t-34 -3t-50 7t-60.5 33.5t-66 68.5l-287 418l-37 -39v-483h-131v1460q0 14 -15.5 19.5t-29.5 3.5h-14z" />
<glyph unicode="l" horiz-adv-x="389" d="M76 1483v10q20 14 61 14h2h22.5t32 -9t36 -26.5t26.5 -55.5t12 -91v-1325h-131v1460q0 14 -15.5 19.5t-31.5 3.5h-14z" />
<glyph unicode="m" horiz-adv-x="1310" d="M43 977v10q20 16 57 17h2q14 0 27.5 -2.5t38.5 -13.5t42 -45t21 -87q2 2 12.5 16.5t18.5 25.5t26.5 27.5t37 28t46 20.5t58.5 11q19 1 37 1q85 0 129 -32q53 -39 96 -127q121 147 244 158q10 1 20 1q116 0 196 -87q87 -94 87 -199v-704q-2 2 -14.5 -1t-31.5 6t-37.5 23.5 t-33 53.5t-14.5 94v528q-4 76 -41 134.5t-117 60.5h-6q-90 1 -148 -57q-60 -60 -59 -138v-700h-135v700q-2 74 -39 133.5t-117 61.5q-31 0 -60.5 -7t-50 -17.5t-40 -26t-29.5 -26.5t-20 -23.5t-13 -14.5v-780h-133v956q0 14 -14 19.5t-29 3.5z" />
<glyph unicode="n" horiz-adv-x="860" d="M57 981q20 12 60 12h2h6q107 0 123 -139q4 31 57 76t137 51q18 1 35 1q136 0 209 -86q82 -97 82 -228v-672q-2 2 -14.5 -1t-33 5t-38.5 22.5t-32.5 54.5t-14.5 95v514q-2 70 -49 137.5t-127 69.5q-37 0 -71 -11.5t-57.5 -29.5t-39 -34.5t-28.5 -34t-15 -19.5v-764h-131 v950q0 14 -14.5 19.5t-28.5 3.5l-15 -2z" />
<glyph unicode="o" horiz-adv-x="880" d="M74 489q0 160 57 288t162 175q74 33 162 33q92 0 161 -33q104 -47 162 -175.5t58 -282.5q0 -156 -58.5 -288t-161.5 -179q-76 -33 -161 -33q-82 0 -162 33q-104 47 -161.5 176t-57.5 286zM211 489q0 -80 23.5 -176t82 -180t138.5 -84q61 0 112 47t80 118t44.5 143.5 t15.5 131.5q0 84 -26 181.5t-86 179.5t-140 82t-139.5 -84t-82 -180.5t-22.5 -178.5z" />
<glyph unicode="p" horiz-adv-x="880" d="M37 975v10q20 14 59 14q63 0 92 -28q39 -39 39 -125q12 16 39 41.5t84.5 58.5t114.5 37q17 1 33 1q78 0 139 -32q74 -39 114 -99t63.5 -140t28.5 -141q4 -44 4 -85q0 -16 -1 -32q-4 -98 -20.5 -171t-50.5 -139.5t-97.5 -106.5t-155.5 -48q-15 -1 -29 -1q-57 0 -98 19 q-51 25 -70.5 59.5t-45 67.5t-52.5 37v-481q0 -55 -14 -94t-32.5 -54.5t-38 -23.5t-31.5 -6h-15v1439q0 14 -15 19.5t-30 3.5h-14zM227 221q55 -4 115.5 -67.5t101.5 -69.5q16 -5 34.5 -5t38.5 5q40 10 76 33.5t67 96t47 185.5q7 50 7 100q0 64 -12 127q-20 111 -78.5 189 t-142.5 80h-8q-55 0 -113 -25q-63 -28 -90.5 -50.5t-42.5 -39.5v-559z" />
<glyph unicode="q" horiz-adv-x="901" d="M68 487q0 55 6 113.5t29.5 133.5t62.5 130.5t112 91.5q60 28 137 28q18 0 36 -1q57 -4 116.5 -38t87 -60.5t33.5 -38.5q6 45 20.5 75.5t32 42t35 18.5t29.5 4t16 -1v-1466q-2 2 -14 -1t-32.5 6t-40 22.5t-34 52.5t-14.5 94v502q-27 -4 -51.5 -40t-44 -74t-70.5 -65 q-42 -21 -100 -21q-13 0 -27 1q-317 31 -325 491zM213 420q12 -113 42 -187.5t68.5 -104.5t72.5 -38q19 -5 41 -5q16 0 34 3q43 6 102.5 79t114.5 77v526l-8 8q-8 6 -21.5 17.5t-31 25t-40 26.5t-46 24.5t-51 17.5t-54.5 6q-84 -2 -141 -77t-77 -180q-11 -62 -11 -126 q0 -45 6 -92z" />
<glyph unicode="r" horiz-adv-x="573" d="M39 958v9q20 16 57 16q12 0 27.5 -3t42.5 -14.5t44 -41t17 -74.5q2 2 15.5 19.5t28 33t36 33.5t53 31.5t66.5 17.5q18 2 35 2q51 0 88 -18l-57 -127q-45 20 -84 20q-54 0 -100 -38q-78 -64 -79 -130v-694h-131l-2 936q0 14 -14 19.5t-29 2.5h-14z" />
<glyph unicode="s" horiz-adv-x="757" d="M31 154l94 116q4 -8 10 -22.5t28.5 -51t49.5 -65.5t70 -52.5t90 -25.5h8q121 -1 171 61q33 40 33 86q1 26 -11 54q-30 76 -199 176q-33 18 -95.5 50t-88 48.5t-55.5 50t-44 76.5q-11 37 -11 74q-1 63 33 121q54 92 167 125q38 10 79 10q18 0 36 -2q60 -6 115.5 -26.5 t99.5 -43t73 -41.5l27 -16l-90 -123q-43 111 -133 163q-64 37 -125 37q-24 1 -47 -5q-83 -20 -113 -103q-10 -27 -11.5 -49t11 -43.5t24 -37t41 -37t48 -32t59.5 -34.5q16 -10 24 -14q20 -12 78 -45t78 -46.5t60 -44t55.5 -54t27.5 -60.5q11 -32 12 -67q0 -6 -1 -11 q-16 -257 -308 -257q-30 0 -63 3q-88 8 -165 47t-110 76z" />
<glyph unicode="t" horiz-adv-x="696" d="M16 889v2v18.5t9.5 23.5t27 25.5t55 18.5t91.5 8h8v252q0 14 -14.5 20.5t-28.5 4.5l-14 -2l-3 10q23 16 60 16h2h8q115 0 123 -166v-18v-117h225q14 0 20.5 14.5t4.5 28.5l-2 14l10 2q16 -20 16 -59v-2v-17.5t-9 -22.5t-25.5 -25.5t-53.5 -19.5t-88 -9h-98l-2 -473 q0 -4 1 -42t2 -63.5t5 -66.5t11.5 -69t20.5 -51.5t32 -31.5q17 -7 35 -7q23 1 47 13q40 22 61 49l20 29l31 -129q-29 -21 -91 -39q-40 -12 -88 -12q-26 0 -55 4q-81 10 -120 72q-16 25 -25.5 62.5t-12.5 82.5t-4 103v60.5v65.5v45q0 47 -1 101v297h-144q-14 0 -19 -14.5 t-3 -28.5v-15l-8 -2q-16 20 -17 60z" />
<glyph unicode="u" horiz-adv-x="880" d="M29 969q20 16 59 16h18.5t31 -6t40 -18.5t28.5 -41t13 -69.5v-555q4 -66 68.5 -138.5t146.5 -74.5q37 0 73 11t63.5 30.5t47 37t35 35t17.5 19.5v770h131v-987q-2 2 -12.5 0t-29 5t-36.5 19.5t-32.5 43t-18.5 75.5q-6 -6 -6 -10q-88 -129 -217 -137q-17 -1 -34 -1 q-141 0 -229 91q-98 102 -98 229v625q0 14 -14.5 19.5t-28.5 5.5l-14 -2z" />
<glyph unicode="v" horiz-adv-x="983" d="M10 936q14 23 49 35q33 11 60 11q79 0 112 -93l279 -742l276 828h164l-372 -975h-164l-338 926q-4 14 -19.5 14t-27.5 -6l-15 -6z" />
<glyph unicode="w" horiz-adv-x="1167" d="M2 938q14 20 49 35q10 4 24.5 7t42 3t51.5 -19.5t32 -60.5l168 -721l168 744h120l170 -748l170 807h168l-270 -985h-137l-162 723l-160 -723h-135l-233 930q-4 12 -19.5 12t-28.5 -6l-14 -6z" />
<glyph unicode="x" horiz-adv-x="942" d="M10 0l379 500l-289 418q-10 10 -23.5 7t-25.5 -12l-12 -10l-6 6q8 25 41 47q8 6 15 10.5t29.5 12.5t43 7t48.5 -17.5t50 -50.5l211 -328l258 395h156l-330 -485l367 -500q-12 -4 -36 -7h-6q-24 -1 -80 21q-62 24 -116 90l-223 297l-295 -401h-156z" />
<glyph unicode="y" horiz-adv-x="983" d="M6 938q14 23 49 37q34 13 62 13q75 0 112 -93l265 -723l301 813h145l-377 -981q-145 -360 -231 -430q-49 -39 -104 -51q-42 -9 -66 -9q-8 0 -14 1q-25 4 -74 16l30 139q10 -8 26.5 -20t58.5 -14q3 -1 5 -1q39 0 68 35q27 33 68 116t69 148l29 68l-356 928q-4 14 -19.5 14 t-27.5 -6l-15 -8z" />
<glyph unicode="z" horiz-adv-x="839" d="M47 0v82q541 772 578 815h-500q-14 0 -19.5 -14.5t-3.5 -28.5v-14h-10q-14 20 -14 59v6q0 6 1 10.5t4 12.5t7 14t11.5 13.5t17.5 12.5t23.5 9t34 6t42.5 2h563v-82l-592 -819h566q14 0 20 14.5t6 28.5l-2 14h8q2 -2 4.5 -6t6.5 -20.5t4 -32.5v-14.5t-7.5 -20.5 t-20.5 -23.5t-43 -17.5q-24 -6 -54 -6h-16h-615z" />
<glyph unicode="{" horiz-adv-x="679" d="M231 506v16q12 0 31 2t49.5 20.5t30.5 49.5v715q0 51 9 88t21.5 54t29 26.5t23.5 10.5t15 1q20 2 49 0t48 -6l16 -2l-2 -17q-111 8 -111 -39v-702q-4 -90 -15 -135t-48 -74q43 -49 53 -91t10 -144v-703q0 -20 28 -30.5t56 -8.5h27l2 -16q-8 -2 -19.5 -4t-42 -4t-51.5 0 q-8 0 -15 1t-23.5 10t-29 26.5t-21.5 54.5t-9 88v739q0 31 -27.5 49.5t-56.5 22.5z" />
<glyph unicode="|" horiz-adv-x="757" d="M328 0h102v1485h-102v-1485z" />
<glyph unicode="}" horiz-adv-x="679" d="M127 -479l2 16q111 -8 111 39v703q0 102 10 144t53 91q-37 29 -48 74t-15 135v702q0 20 -28 30.5t-56 10.5l-27 -2l-2 17q8 2 19.5 4t42 4t51.5 0q8 0 15 -1t23.5 -10.5t28.5 -26.5t21.5 -54t9.5 -88v-715q0 -31 27.5 -49.5t56.5 -20.5l27 -2v-16q-4 0 -11.5 -1t-27 -5 t-34 -11.5t-26.5 -21.5t-12 -35v-739q0 -51 -9.5 -88t-21.5 -54.5t-28.5 -26.5t-23.5 -10t-15 -1q-20 -2 -49 0t-48 4z" />
<glyph unicode="~" horiz-adv-x="962" d="M86 444h31q0 51 38 86t115 35q66 0 202 -60.5t202 -60.5q82 0 152.5 81t70.5 147h-31q0 -68 -58 -107t-112 -24q-18 6 -95 36.5t-154.5 52t-147.5 21.5q-84 0 -148.5 -69.5t-64.5 -137.5z" />
<glyph unicode="&#xa2;" horiz-adv-x="716" d="M25 483v4v2q6 168 62 292t159 171q43 20 88 27v55q0 57 14 74.5t47 17.5q10 0 22.5 -4t18.5 -8l6 -4v-8q-39 8 -39 -25v-92q74 -4 144.5 -39t103.5 -69l35 -33l-86 -99q-2 8 -8 21.5t-27.5 47.5t-45 58.5t-62.5 43t-82 14.5q-96 -12 -149.5 -139t-51.5 -295v-9v-8 q-2 -168 51.5 -296t149.5 -138q43 -4 82 13.5t63.5 45t44 56t27.5 49.5l8 20l86 -98q-12 -14 -35.5 -36.5t-98.5 -62.5t-149 -42v-35q0 -55 -14 -73.5t-47 -18.5q-10 0 -22.5 3t-18.5 7l-6 4v10q37 -10 37 23v84q-49 10 -86 29q-102 45 -158.5 168.5t-62.5 291.5z" />
<glyph unicode="&#xa7;" d="M131 -248l105 129q4 -12 13 -34.5t42 -79t69.5 -100.5t97 -80t126.5 -38q170 -4 250.5 113t37.5 223q-37 100 -284 252q-51 31 -131 69t-119 59.5t-79 65.5t-56 103q-41 135 25.5 251t220.5 163q-86 43 -132.5 85t-68.5 116q-41 139 27.5 255.5t224.5 161.5q88 23 172 17 t159.5 -34t133 -58.5t92.5 -55.5l33 -24l-103 -144q-63 121 -152.5 194t-172 87t-157.5 -34t-112 -154q-12 -33 -12 -64t6 -54.5t28.5 -50t41 -44t58.5 -43t65.5 -41t76.5 -43.5q227 -137 291 -191q139 -117 139 -248q0 -260 -241 -325q197 -143 196 -293q0 -98 -35.5 -169 t-92 -104.5t-125 -54t-134 -18.5t-118.5 2q-76 6 -145.5 31.5t-116 59.5t-80 65.5t-48.5 54.5zM335 579.5q1 -30.5 7 -55t28.5 -51.5t41 -44t57.5 -44t63.5 -42t75.5 -44q115 -65 176 -104q92 47 128 139t8 168q-23 59 -110 129.5t-179 124.5q-49 29 -107 55 q-133 -49 -178 -168q-12 -33 -11 -63.5z" />
<glyph unicode="&#xa8;" d="M422 1214.5q0 28.5 20.5 48t49 19.5t48 -19.5t19.5 -48.5q0 -27 -19.5 -47t-48 -20t-49 19.5t-20.5 48zM717 1214q0 29 19.5 48.5t48 19.5t49 -19.5t20.5 -48t-20.5 -48t-49.5 -19.5q-27 0 -47 20.5t-20 46.5z" />
<glyph unicode="&#xaa;" horiz-adv-x="450" d="M10 1247q8 41 47 58.5t84 25.5t58 21q27 23 20.5 61.5t-39.5 42.5q-27 4 -51.5 -13.5t-34.5 -35.5l-12 -18l-39 45q6 6 18.5 16t50.5 24.5t74 6.5q98 -16 99 -129v-232q0 -6 5 -8t11 -2l6 2v-6q-8 -6 -22 -6q-57 -2 -58 71q-12 0 -37.5 -30.5t-46.5 -36.5q-8 -6 -48 -3 t-58 21q-47 43 -27 125zM68 1223q-4 -61 28 -78q16 -10 45 -4t39 22.5t22.5 24.5t18.5 8h6v147q-6 -12 -20 -18t-39 -11t-43 -14q-51 -23 -57 -77z" />
<glyph unicode="&#xad;" horiz-adv-x="552" d="M92 444h350v99h-350v-99z" />
<glyph unicode="&#xae;" d="M377 1235q0 102 71.5 175t174 73t175 -73t72.5 -175t-72.5 -175t-175 -73t-174 73t-71.5 175zM397 1235q0 -94 65.5 -160.5t160 -66.5t161 66.5t66.5 160.5t-66.5 160.5t-161 66.5t-160 -66.5t-65.5 -160.5zM514 1087v3q16 -4 16 6v272l-14 12l-2 2q8 4 16 4h97 q78 -8 82 -69q0 -57 -64 -66q61 0 68 -73v-30t4 -42t12 -14t13.5 7t7.5 15v8l16 -22q-14 -25 -50 -15.5t-36 54.5q0 98 -43 102q-14 2 -72 2v-123q0 -18 -9 -27.5t-14 -10.5t-12 -1zM565 1257q35 0 58 3q51 4 55 40q8 66 -57 70q-36 4 -56 2v-115z" />
<glyph unicode="&#xaf;" d="M358 1190v49h519v-49h-519z" />
<glyph unicode="&#xb0;" horiz-adv-x="552" d="M41 1298.5q0 59.5 32.5 110.5t82.5 70q33 12 73.5 12t73.5 -12q49 -18 83 -70.5t34 -110t-34 -109.5t-83 -71q-33 -12 -74 -12t-73 12q-49 18 -82 69.5t-33 111zM135 1298.5q0 -59.5 21.5 -115t72.5 -55.5q53 0 78 55.5t25 115t-24.5 115.5t-78.5 56q-51 0 -72.5 -56 t-21.5 -115.5z" />
<glyph unicode="&#xb1;" d="M154 0v98h983v-98h-983zM154 678v98h442v441h98v-441h443v-98h-443v-445h-98v445h-442z" />
<glyph unicode="&#xb4;" horiz-adv-x="634" d="M240 1083q53 41 131 164q25 35 44 78t27 68l9 26l127 -73q-154 -181 -318 -277z" />
<glyph unicode="&#xb6;" d="M184 1161q14 166 108.5 239t252.5 81q68 4 452 4q16 0 34 -3t26 -7l8 -2v-13q-68 10 -68 -28v-1141q0 -74 -39.5 -134.5t-101 -94t-125 -52t-121.5 -18.5q-133 0 -201.5 79.5t-91.5 233.5l150 78q-2 -14 -4 -36.5t-3 -82t6 -104.5t32.5 -85t66.5 -44q152 -16 152 137v614 q-127 -8 -208 2.5t-167 49.5q-78 35 -123 125t-35 202zM713 53q98 23 129 51q49 45 49 142v1208h-135v-1268q0 -86 -43 -133z" />
<glyph unicode="&#xba;" horiz-adv-x="512" d="M6 1298.5q0 59.5 33 110.5t82 70q33 12 74 12t73 -12q49 -18 82 -70t33 -111q0 -57 -33 -109t-82 -71q-33 -12 -73.5 -12t-73.5 12q-49 18 -82 69.5t-33 111zM98 1298q0 -35 6.5 -69.5t30 -67.5t60.5 -33q53 0 77.5 55.5t24.5 115t-24.5 115.5t-78 56t-75 -56t-21.5 -116 z" />
<glyph unicode="&#xc0;" horiz-adv-x="1208" d="M39 0l498 1442q-2 12 -15.5 17t-25.5 3h-15l-2 11q2 2 7.5 4t21.5 5t33 3q14 0 33.5 -5t58 -42t61.5 -105l510 -1333q-2 2 -16 0t-43 5t-56.5 19.5t-57.5 44t-48 76.5q-78 217 -162 457h-438l-188 -602h-156zM350 1841q154 -180 318 -274l20 12q-51 41 -131 164 q-25 35 -44 78t-28 67l-8 27zM410 690h381l-201 590z" />
<glyph unicode="&#xc1;" horiz-adv-x="1208" d="M39 0l498 1442q-2 12 -15.5 17t-25.5 3h-15l-2 11q2 2 7.5 4t21.5 5t33 3q14 0 33.5 -5t58 -42t61.5 -105l510 -1333q-2 2 -16 0t-43 5t-56.5 19.5t-57.5 44t-48 76.5q-78 217 -162 457h-438l-188 -602h-156zM410 690h381l-201 590zM526 1577q53 41 131 164 q25 35 44.5 78t27.5 69l8 25l127 -74q-153 -180 -317 -276z" />
<glyph unicode="&#xc2;" horiz-adv-x="1208" d="M39 0l498 1442q-2 12 -15.5 17t-25.5 3h-15l-2 11q2 2 7.5 4t21.5 5t33 3q14 0 33.5 -5t58 -42t61.5 -105l510 -1333q-2 2 -16 0t-43 5t-56.5 19.5t-57.5 44t-48 76.5q-78 217 -162 457h-438l-188 -602h-156zM319 1608q74 59 123 114q33 35 54.5 73t27.5 56l4 21h127 q16 -68 82 -146q57 -67 125 -118l-20 -17q-152 96 -205 154q-20 20 -37 45h-14q-57 -92 -242 -199zM410 690h381l-201 590z" />
<glyph unicode="&#xc3;" horiz-adv-x="1208" d="M39 0l498 1442q-2 12 -15.5 17t-25.5 3h-15l-2 11q2 2 7.5 4t21.5 5t33 3q14 0 33.5 -5t58 -42t61.5 -105l510 -1333q-2 2 -16 0t-43 5t-56.5 19.5t-57.5 44t-48 76.5q-78 217 -162 457h-438l-188 -602h-156zM334 1604h22q0 37 28 62.5t87 25.5q47 0 105.5 -44t107.5 -44 q61 0 112.5 59t51.5 106h-23q0 -47 -42 -76.5t-81 -17.5q-6 2 -75.5 41t-137.5 39q-61 0 -108 -50t-47 -101zM410 690h381l-201 590z" />
<glyph unicode="&#xc4;" horiz-adv-x="1208" d="M39 0l498 1442q-2 12 -15.5 17t-25.5 3h-15l-2 11q2 2 7.5 4t21.5 5t33 3q14 0 33.5 -5t58 -42t61.5 -105l510 -1333q-2 2 -16 0t-43 5t-56.5 19.5t-57.5 44t-48 76.5q-78 217 -162 457h-438l-188 -602h-156zM377 1714.5q0 28.5 20.5 48t49 19.5t48 -19.5t19.5 -48.5 q0 -27 -19.5 -47t-48 -20t-49 19.5t-20.5 48zM410 690h381l-201 590zM672 1714q0 29 19.5 48.5t48 19.5t49 -19.5t20.5 -48t-20.5 -48t-49.5 -19.5q-27 0 -47 20.5t-20 46.5z" />
<glyph unicode="&#xc5;" horiz-adv-x="1208" d="M39 0l498 1442q-2 12 -15.5 17t-25.5 3h-15l-2 11q2 2 7.5 4t21.5 5t33 3q14 0 33.5 -5t58 -42t61.5 -105l510 -1333q-2 2 -16 0t-43 5t-56.5 19.5t-57.5 44t-48 76.5q-78 217 -162 457h-438l-188 -602h-156zM410 690h381l-201 590zM420 1767.5q0 53.5 30.5 100.5 t75.5 63q27 12 68 13q39 0 68 -13q45 -16 74.5 -63t29.5 -100.5t-29.5 -101.5t-74.5 -64q-31 -10 -68 -11q-39 0 -68 11q-45 16 -75.5 64t-30.5 101.5zM506 1767.5q0 -22.5 4 -46t12 -50t26.5 -43t45.5 -16.5q47 0 69.5 50t22.5 105q0 53 -22.5 104.5t-69.5 51.5 q-27 0 -45.5 -16.5t-26.5 -43t-12 -50t-4 -46z" />
<glyph unicode="&#xc6;" horiz-adv-x="2232" d="M39 0l498 1442q-2 12 -15.5 17t-25.5 3h-15l-2 11q2 2 7.5 4t21.5 5t33 3q14 0 33.5 -5t58 -42t61.5 -105l510 -1333q-2 2 -16 0t-43 5t-56.5 19.5t-57.5 44t-48 76.5q-78 217 -162 457h-438l-188 -602h-156zM410 690h381l-201 590zM1288 18v9q57 -8 58 22v1389 q0 14 -14.5 20t-28.5 4l-15 -2v10q20 14 58 15h641q63 0 103 -15.5t53.5 -40t15.5 -37t2 -28.5v-4q0 -16 -4.5 -30.5t-8.5 -20.5l-4 -6h-8q8 57 -22 57h-609v-516h469q0 -4 -2 -9.5t-12 -20.5t-26.5 -26.5t-52.5 -21.5t-83 -10h-293v-629h609q14 0 19 14.5t5 30.5l-2 14h8 q16 -20 17 -59v-2v-21.5t-9.5 -30t-27 -33.5t-54 -25.5t-88.5 -12.5h-636q-16 0 -31 4t-21 8z" />
<glyph unicode="&#xc7;" horiz-adv-x="1015" d="M51 711q0 119 2 133q10 274 120 436t265 190q342 63 525 -155l-115 -129q-4 12 -11.5 30.5t-35 64.5t-62 80t-96 56.5t-133.5 12.5q-131 -18 -196.5 -184.5t-73.5 -416.5v-129q4 -274 67.5 -457.5t202.5 -203.5q72 -10 133.5 11.5t97 59t61 75.5t36.5 67l10 29l115 -131 q-150 -182 -424 -164l-31 -74q111 -12 143 -33q104 -61 78 -190q-14 -63 -80.5 -93t-146.5 -24q-45 4 -91 21.5t-71 33.5l-23 15l54 63q6 -12 19 -29.5t51 -47t75 -29.5q59 0 91 50t30 103q-2 74 -49 95.5t-180 21.5l55 125q-16 4 -25 4q-162 31 -274.5 219.5t-112.5 493.5z " />
<glyph unicode="&#xc8;" horiz-adv-x="1024" d="M80 18v9q57 -8 57 22v1389q0 14 -14 20t-29 4l-14 -2v10q20 14 57 15h641q63 0 103.5 -15.5t53.5 -40t15 -37t2 -28.5v-4q0 -16 -4 -30.5t-8 -20.5l-4 -6h-8q8 57 -23 57h-608v-516h469q0 -4 -2 -9.5t-12.5 -20.5t-26.5 -26.5t-52 -21.5t-83 -10h-293v-629h608 q14 0 19.5 14.5t5.5 30.5l-2 14h8q16 -20 16 -59v-2v-21.5t-9 -30t-26.5 -33.5t-54.5 -25.5t-88 -12.5h-637q-16 0 -30.5 4t-20.5 8zM268 1841q154 -180 318 -274l20 12q-51 41 -131 164q-25 35 -44 78t-28 67l-8 27z" />
<glyph unicode="&#xc9;" horiz-adv-x="1024" d="M80 18v9q57 -8 57 22v1389q0 14 -14 20t-29 4l-14 -2v10q20 14 57 15h641q63 0 103.5 -15.5t53.5 -40t15 -37t2 -28.5v-4q0 -16 -4 -30.5t-8 -20.5l-4 -6h-8q8 57 -23 57h-608v-516h469q0 -4 -2 -9.5t-12.5 -20.5t-26.5 -26.5t-52 -21.5t-83 -10h-293v-629h608 q14 0 19.5 14.5t5.5 30.5l-2 14h8q16 -20 16 -59v-2v-21.5t-9 -30t-26.5 -33.5t-54.5 -25.5t-88 -12.5h-637q-16 0 -30.5 4t-20.5 8zM444 1577q53 41 131 164q25 35 44.5 78t27.5 69l8 25l127 -74q-153 -180 -317 -276z" />
<glyph unicode="&#xca;" horiz-adv-x="1024" d="M80 18v9q57 -8 57 22v1389q0 14 -14 20t-29 4l-14 -2v10q20 14 57 15h641q63 0 103.5 -15.5t53.5 -40t15 -37t2 -28.5v-4q0 -16 -4 -30.5t-8 -20.5l-4 -6h-8q8 57 -23 57h-608v-516h469q0 -4 -2 -9.5t-12.5 -20.5t-26.5 -26.5t-52 -21.5t-83 -10h-293v-629h608 q14 0 19.5 14.5t5.5 30.5l-2 14h8q16 -20 16 -59v-2v-21.5t-9 -30t-26.5 -33.5t-54.5 -25.5t-88 -12.5h-637q-16 0 -30.5 4t-20.5 8zM238 1608q74 59 122 114q33 35 54.5 73t27.5 56l4 21h127q16 -68 82 -146q57 -67 125 -118l-20 -17q-152 96 -205 154q-20 20 -37 45h-14 q-57 -92 -242 -199z" />
<glyph unicode="&#xcb;" horiz-adv-x="1024" d="M80 18v9q57 -8 57 22v1389q0 14 -14 20t-29 4l-14 -2v10q20 14 57 15h641q63 0 103.5 -15.5t53.5 -40t15 -37t2 -28.5v-4q0 -16 -4 -30.5t-8 -20.5l-4 -6h-8q8 57 -23 57h-608v-516h469q0 -4 -2 -9.5t-12.5 -20.5t-26.5 -26.5t-52 -21.5t-83 -10h-293v-629h608 q14 0 19.5 14.5t5.5 30.5l-2 14h8q16 -20 16 -59v-2v-21.5t-9 -30t-26.5 -33.5t-54.5 -25.5t-88 -12.5h-637q-16 0 -30.5 4t-20.5 8zM295 1714.5q0 28.5 20.5 48t49 19.5t48 -19.5t19.5 -48.5q0 -27 -19.5 -47t-48 -20t-49 19.5t-20.5 48zM590 1714q0 29 19.5 48.5t48 19.5 t49 -19.5t20.5 -48t-20.5 -48t-49.5 -19.5q-27 0 -47 20.5t-20 46.5z" />
<glyph unicode="&#xcc;" horiz-adv-x="430" d="M-61 1841q153 -180 317 -274l20 12q-51 41 -131 164q-25 35 -44 78t-27 67l-8 27zM72 1460v10q20 16 59 17h2h26.5t39 -9.5t44 -26.5t33 -56t15.5 -92v-1110q0 -84 -40 -132.5t-79 -54.5l-41 -6v1440q0 14 -14.5 19t-30.5 3z" />
<glyph unicode="&#xcd;" horiz-adv-x="430" d="M72 1460v10q20 16 59 17h2h26.5t39 -9.5t44 -26.5t33 -56t15.5 -92v-1110q0 -84 -40 -132.5t-79 -54.5l-41 -6v1440q0 14 -14.5 19t-30.5 3zM115 1577q53 41 131 164q25 35 44 78t27 69l9 25l127 -74q-154 -180 -318 -276z" />
<glyph unicode="&#xce;" horiz-adv-x="430" d="M-92 1608q74 59 123 114q33 35 54 73t26 56l6 21h127q16 -68 82 -146q57 -67 125 -118l-21 -17q-152 96 -205 154q-20 20 -37 45h-14q-57 -92 -242 -199zM72 1460v10q20 16 59 17h2h26.5t39 -9.5t44 -26.5t33 -56t15.5 -92v-1110q0 -84 -40 -132.5t-79 -54.5l-41 -6v1440 q0 14 -14.5 19t-30.5 3z" />
<glyph unicode="&#xcf;" horiz-adv-x="430" d="M-35 1714.5q0 28.5 20.5 48t49 19.5t48 -19.5t19.5 -48.5q0 -27 -20 -47t-47 -20q-29 0 -49.5 19.5t-20.5 48zM72 1460v10q20 16 59 17h2h26.5t39 -9.5t44 -26.5t33 -56t15.5 -92v-1110q0 -84 -40 -132.5t-79 -54.5l-41 -6v1440q0 14 -14.5 19t-30.5 3zM260 1714 q0 29 19.5 48.5t48 19.5t49 -19.5t20.5 -48t-20.5 -48t-49 -19.5t-48 20.5t-19.5 46.5z" />
<glyph unicode="&#xd1;" d="M61 1468q23 16 62 17h13t15.5 -1t15.5 -3t17 -5t17.5 -9.5t20.5 -15.5t20.5 -21.5t24 -30t26.5 -37.5q18 -27 306 -508t341 -567v1009q0 84 40 131.5t81 51.5l39 6v-1434q0 -14 15 -19t30 -3h14v-9q-20 -16 -59 -16q-109 0 -174 98l-643 1041v-946q0 -57 -16.5 -98.5 t-40 -60t-47 -27.5t-40.5 -11h-16v1438q0 14 -14.5 19t-30.5 5l-15 -2zM354 1604h23q0 37 27.5 62.5t87.5 25.5q49 0 106 -44t107 -44q61 0 112 59t51 106h-22q0 -47 -42 -76.5t-81 -17.5q-6 2 -75.5 41t-137.5 39q-61 0 -108.5 -50t-47.5 -101z" />
<glyph unicode="&#xd2;" d="M37 739q0 240 86 432.5t242 266.5q118 47 239 47h6q123 0 248 -47q154 -74 240 -266.5t86 -432.5q0 -244 -86 -435t-240 -261q-106 -47 -248 -47q-145 0 -245 47q-156 68 -242 260.5t-86 435.5zM213 739q0 -158 43 -313.5t137 -269t217 -113.5h6q119 0 212.5 116.5 t136.5 272.5t43 307q0 154 -43 308.5t-137.5 269.5t-217.5 115h-6q-123 0 -215 -113t-134 -266.5t-42 -313.5zM371 1841q153 -180 317 -274l21 12q-51 41 -131 164q-25 35 -44.5 78t-27.5 67l-8 27z" />
<glyph unicode="&#xd3;" d="M37 739q0 240 86 432.5t242 266.5q118 47 239 47h6q123 0 248 -47q154 -74 240 -266.5t86 -432.5q0 -244 -86 -435t-240 -261q-106 -47 -248 -47q-145 0 -245 47q-156 68 -242 260.5t-86 435.5zM213 739q0 -158 43 -313.5t137 -269t217 -113.5h6q119 0 212.5 116.5 t136.5 272.5t43 307q0 154 -43 308.5t-137.5 269.5t-217.5 115h-6q-123 0 -215 -113t-134 -266.5t-42 -313.5zM547 1577q53 41 131 164q25 35 44 78t28 69l8 25l127 -74q-154 -180 -318 -276z" />
<glyph unicode="&#xd4;" d="M37 739q0 240 86 432.5t242 266.5q118 47 239 47h6q123 0 248 -47q154 -74 240 -266.5t86 -432.5q0 -244 -86 -435t-240 -261q-106 -47 -248 -47q-145 0 -245 47q-156 68 -242 260.5t-86 435.5zM213 739q0 -158 43 -313.5t137 -269t217 -113.5h6q119 0 212.5 116.5 t136.5 272.5t43 307q0 154 -43 308.5t-137.5 269.5t-217.5 115h-6q-123 0 -215 -113t-134 -266.5t-42 -313.5zM340 1608q74 59 123 114q33 35 54.5 73t27.5 56l4 21h127q16 -68 82 -146q57 -67 125 -118l-21 -17q-152 96 -205 154q-20 20 -36 45h-15q-57 -92 -241 -199z" />
<glyph unicode="&#xd5;" d="M37 739q0 240 86 432.5t242 266.5q118 47 239 47h6q123 0 248 -47q154 -74 240 -266.5t86 -432.5q0 -244 -86 -435t-240 -261q-106 -47 -248 -47q-145 0 -245 47q-156 68 -242 260.5t-86 435.5zM213 739q0 -158 43 -313.5t137 -269t217 -113.5h6q119 0 212.5 116.5 t136.5 272.5t43 307q0 154 -43 308.5t-137.5 269.5t-217.5 115h-6q-123 0 -215 -113t-134 -266.5t-42 -313.5zM354 1604h23q0 37 27.5 62.5t87.5 25.5q49 0 106 -44t107 -44q61 0 112 59t51 106h-22q0 -47 -42 -76.5t-81 -17.5q-6 2 -75.5 41t-137.5 39q-61 0 -108.5 -50 t-47.5 -101z" />
<glyph unicode="&#xd6;" d="M37 739q0 240 86 432.5t242 266.5q118 47 239 47h6q123 0 248 -47q154 -74 240 -266.5t86 -432.5q0 -244 -86 -435t-240 -261q-106 -47 -248 -47q-145 0 -245 47q-156 68 -242 260.5t-86 435.5zM213 739q0 -158 43 -313.5t137 -269t217 -113.5h6q119 0 212.5 116.5 t136.5 272.5t43 307q0 154 -43 308.5t-137.5 269.5t-217.5 115h-6q-123 0 -215 -113t-134 -266.5t-42 -313.5zM397 1714.5q0 28.5 20.5 48t49.5 19.5t48.5 -19.5t19.5 -48.5q0 -27 -19.5 -47t-48.5 -20t-49.5 19.5t-20.5 48zM692 1714q0 29 19.5 48.5t48 19.5t49 -19.5 t20.5 -48t-20 -48t-49 -19.5q-27 0 -47.5 20.5t-20.5 46.5z" />
<glyph unicode="&#xd7;" d="M240 172l313 313l-311 314l67 69l314 -313l311 311l70 -69l-312 -312l312 -313l-70 -70l-311 314l-316 -314z" />
<glyph unicode="&#xd9;" d="M82 1458v10q20 16 59 17h2h26.5t39.5 -9.5t45 -26.5t33.5 -56t15.5 -93v-749q0 -178 27.5 -287.5t79 -156t125 -59.5t167.5 1q74 8 130.5 44t85 79t46 98.5t21.5 90t4 65.5v1059h141v-1045q0 -231 -143 -358q-53 -47 -118.5 -67.5t-206.5 -20.5q-29 2 -70 -1t-89 7 t-98.5 22.5t-96.5 47t-83 81t-58.5 123t-21.5 175.5l-2 989q0 14 -15 19t-30 3zM371 1841q153 -180 317 -274l21 12q-51 41 -131 164q-25 35 -44.5 78t-27.5 67l-8 27z" />
<glyph unicode="&#xda;" d="M82 1458v10q20 16 59 17h2h26.5t39.5 -9.5t45 -26.5t33.5 -56t15.5 -93v-749q0 -178 27.5 -287.5t79 -156t125 -59.5t167.5 1q74 8 130.5 44t85 79t46 98.5t21.5 90t4 65.5v1059h141v-1045q0 -231 -143 -358q-53 -47 -118.5 -67.5t-206.5 -20.5q-29 2 -70 -1t-89 7 t-98.5 22.5t-97.5 47t-83 81t-58.5 123t-22.5 175.5v989q0 14 -15 19t-30 3zM547 1577q53 41 131 164q25 35 44 78t28 69l8 25l127 -74q-154 -180 -318 -276z" />
<glyph unicode="&#xdb;" d="M82 1458v10q20 16 59 17h2h26.5t39.5 -9.5t45 -26.5t33.5 -56t15.5 -93v-749q0 -178 27.5 -287.5t79 -156t125 -59.5t167.5 1q74 8 130.5 44t85 79t46 98.5t21.5 90t4 65.5v1059h141v-1045q0 -231 -143 -358q-53 -47 -118.5 -67.5t-206.5 -20.5q-29 2 -70 -1t-89 7 t-98.5 22.5t-97.5 47t-83 81t-58.5 123t-22.5 175.5v989q0 14 -15 19t-30 3zM340 1608q74 59 123 114q33 35 54.5 73t27.5 56l4 21h127q16 -68 82 -146q57 -67 125 -118l-21 -17q-152 96 -205 154q-20 20 -36 45h-15q-57 -92 -241 -199z" />
<glyph unicode="&#xdc;" d="M82 1458v10q20 16 59 17h2h26.5t39.5 -9.5t45 -26.5t33.5 -56t15.5 -93v-749q0 -178 27.5 -287.5t79 -156t125 -59.5t167.5 1q74 8 130.5 44t85 79t46 98.5t21.5 90t4 65.5v1059h141v-1045q0 -231 -143 -358q-53 -47 -118.5 -67.5t-206.5 -20.5q-29 2 -70 -1t-89 7 t-98.5 22.5t-96.5 47t-83 81t-58.5 123t-21.5 175.5l-2 989q0 14 -15 19t-30 3zM397 1714.5q0 28.5 20.5 48t49.5 19.5t48.5 -19.5t19.5 -48.5q0 -27 -19.5 -47t-48.5 -20t-49.5 19.5t-20.5 48zM692 1714q0 29 19.5 48.5t48 19.5t49 -19.5t20.5 -48t-20 -48t-49 -19.5 q-27 0 -47.5 20.5t-20.5 46.5z" />
<glyph unicode="&#xdd;" horiz-adv-x="962" d="M-43 1419q10 29 53 54q14 8 32.5 11t43.5 0t50.5 -23.5t43.5 -55.5l279 -586l321 666h181l-435 -754l-2 -563q0 -84 -33.5 -127t-68.5 -45h-33v735l-362 660q-12 27 -27.5 30.5t-24.5 -4.5l-10 -8zM373 1577q53 41 131 164q25 35 44 78t27 69l9 25l127 -74 q-154 -180 -318 -276z" />
<glyph unicode="&#xe0;" horiz-adv-x="839" d="M59.5 185q-20.5 87 1.5 190q18 82 86 129t141.5 60.5t152.5 31.5t110 47q43 39 49 105.5t-24.5 120t-86.5 61.5q-43 6 -85 -10.5t-71.5 -43t-53 -54t-33.5 -48.5l-13 -18l-86 96q6 6 17.5 16.5t50.5 39t78 43t102.5 29.5t122.5 -1q236 -41 236 -334v-606q0 -14 14 -19.5 t29 -3.5l14 2l2 -10q-20 -14 -59 -14h-2q-12 0 -22.5 1t-32 10t-36 26.5t-26.5 55.5t-12 91q-27 0 -59 -37t-71.5 -82t-84.5 -57q-23 -14 -126.5 -7t-150.5 54q-51 49 -71.5 136zM186 295q-14 -160 70 -203q43 -23 106.5 -10.5t96.5 51.5q29 39 69.5 62.5t67.5 27.5l27 4 v420q-14 -43 -62.5 -65.5t-124.5 -43t-121 -49.5q-117 -72 -129 -194zM209 1341q153 -180 317 -274l21 12q-51 41 -131 164q-25 35 -44.5 78t-27.5 68l-8 26z" />
<glyph unicode="&#xe1;" horiz-adv-x="839" d="M59.5 185q-20.5 87 1.5 190q18 82 86 129t141.5 60.5t152.5 31.5t110 47q43 39 49 105.5t-24.5 120t-86.5 61.5q-43 6 -85 -10.5t-71.5 -43t-53 -54t-33.5 -48.5l-13 -18l-86 96q6 6 17.5 16.5t50.5 39t78 43t102.5 29.5t122.5 -1q236 -41 236 -334v-606q0 -14 14 -19.5 t29 -3.5l14 2l2 -10q-20 -14 -59 -14h-2q-12 0 -22.5 1t-32 10t-36 26.5t-26.5 55.5t-12 91q-27 0 -59 -37t-71.5 -82t-84.5 -57q-23 -14 -126.5 -7t-150.5 54q-51 49 -71.5 136zM186 295q-14 -160 70 -203q43 -23 106.5 -10.5t96.5 51.5q29 39 69.5 62.5t67.5 27.5l27 4 v420q-14 -43 -62.5 -65.5t-124.5 -43t-121 -49.5q-117 -72 -129 -194zM385 1083q53 41 131 164q25 35 44.5 78t27.5 68l8 26l127 -73q-153 -181 -317 -277z" />
<glyph unicode="&#xe2;" horiz-adv-x="839" d="M59.5 185q-20.5 87 1.5 190q18 82 86 129t141.5 60.5t152.5 31.5t110 47q43 39 49 105.5t-24.5 120t-86.5 61.5q-43 6 -85 -10.5t-71.5 -43t-53 -54t-33.5 -48.5l-13 -18l-86 96q6 6 17.5 16.5t50.5 39t78 43t102.5 29.5t122.5 -1q236 -41 236 -334v-606q0 -14 14 -19.5 t29 -3.5l14 2l2 -10q-20 -14 -59 -14h-2q-12 0 -22.5 1t-32 10t-36 26.5t-26.5 55.5t-12 91q-27 0 -59 -37t-71.5 -82t-84.5 -57q-23 -14 -126.5 -7t-150.5 54q-51 49 -71.5 136zM178 1147q74 59 123 115q33 35 54.5 72.5t25.5 58.5l6 18h127q16 -68 82 -145 q57 -68 125 -119l-21 -17q-152 96 -204 154q-20 20 -37 45h-15q-57 -92 -241 -199zM186 295q-14 -160 70 -203q43 -23 106.5 -10.5t96.5 51.5q29 39 69.5 62.5t67.5 27.5l27 4v420q-14 -43 -62.5 -65.5t-124.5 -43t-121 -49.5q-117 -72 -129 -194z" />
<glyph unicode="&#xe3;" horiz-adv-x="839" d="M59.5 185q-20.5 87 1.5 190q18 82 86 129t141.5 60.5t152.5 31.5t110 47q43 39 49 105.5t-24.5 120t-86.5 61.5q-43 6 -85 -10.5t-71.5 -43t-53 -54t-33.5 -48.5l-13 -18l-86 96q6 6 17.5 16.5t50.5 39t78 43t102.5 29.5t122.5 -1q236 -41 236 -334v-606q0 -14 14 -19.5 t29 -3.5l14 2l2 -10q-20 -14 -59 -14h-2q-12 0 -22.5 1t-32 10t-36 26.5t-26.5 55.5t-12 91q-27 0 -59 -37t-71.5 -82t-84.5 -57q-23 -14 -126.5 -7t-150.5 54q-51 49 -71.5 136zM186 295q-14 -160 70 -203q43 -23 106.5 -10.5t96.5 51.5q29 39 69.5 62.5t67.5 27.5l27 4 v420q-14 -43 -62.5 -65.5t-124.5 -43t-121 -49.5q-117 -72 -129 -194zM193 1186h22q0 37 27.5 62.5t87.5 25.5q47 0 106.5 -44t106.5 -44q61 0 112.5 59.5t51.5 106.5h-23q0 -47 -42 -77t-81 -18q-6 2 -75.5 41t-137.5 39q-61 0 -108 -50t-47 -101z" />
<glyph unicode="&#xe4;" horiz-adv-x="839" d="M59.5 185q-20.5 87 1.5 190q18 82 86 129t141.5 60.5t152.5 31.5t110 47q43 39 49 105.5t-24.5 120t-86.5 61.5q-43 6 -85 -10.5t-71.5 -43t-53 -54t-33.5 -48.5l-13 -18l-86 96q6 6 17.5 16.5t50.5 39t78 43t102.5 29.5t122.5 -1q236 -41 236 -334v-606q0 -14 14 -19.5 t29 -3.5l14 2l2 -10q-20 -14 -59 -14h-2q-12 0 -22.5 1t-32 10t-36 26.5t-26.5 55.5t-12 91q-27 0 -59 -37t-71.5 -82t-84.5 -57q-23 -14 -126.5 -7t-150.5 54q-51 49 -71.5 136zM186 295q-14 -160 70 -203q43 -23 106.5 -10.5t96.5 51.5q29 39 69.5 62.5t67.5 27.5l27 4 v420q-14 -43 -62.5 -65.5t-124.5 -43t-121 -49.5q-117 -72 -129 -194zM236 1214.5q0 28.5 20 48t49 19.5t48.5 -19.5t19.5 -48.5q0 -27 -20.5 -47t-47.5 -20q-29 0 -49 19.5t-20 48zM530 1214q0 29 19.5 48.5t48.5 19.5t49.5 -19.5t20.5 -48t-20.5 -48t-49.5 -19.5 t-48.5 20.5t-19.5 46.5z" />
<glyph unicode="&#xe5;" horiz-adv-x="839" d="M59.5 185q-20.5 87 1.5 190q18 82 86 129t141.5 60.5t152.5 31.5t110 47q43 39 49 105.5t-24.5 120t-86.5 61.5q-43 6 -85 -10.5t-71.5 -43t-53 -54t-33.5 -48.5l-13 -18l-86 96q6 6 17.5 16.5t50.5 39t78 43t102.5 29.5t122.5 -1q236 -41 236 -334v-606q0 -14 14 -19.5 t29 -3.5l14 2l2 -10q-20 -14 -59 -14h-2q-12 0 -22.5 1t-32 10t-36 26.5t-26.5 55.5t-12 91q-27 0 -59 -37t-71.5 -82t-84.5 -57q-23 -14 -126.5 -7t-150.5 54q-51 49 -71.5 136zM186 295q-14 -160 70 -203q43 -23 106.5 -10.5t96.5 51.5q29 39 69.5 62.5t67.5 27.5l27 4 v420q-14 -43 -62.5 -65.5t-124.5 -43t-121 -49.5q-117 -72 -129 -194zM279 1267.5q0 53.5 30.5 100.5t75.5 64q27 12 68 12q39 0 67 -12q45 -16 75 -63.5t30 -101t-30 -101.5t-75 -64q-31 -10 -67 -10q-39 0 -68 10q-45 16 -75.5 64t-30.5 101.5zM365 1267.5q0 -22.5 4 -46 t12 -50t26.5 -43t45.5 -16.5q47 0 69.5 50t22.5 106q0 53 -22.5 104t-69.5 51q-27 0 -45.5 -16t-26.5 -43t-12 -50.5t-4 -46z" />
<glyph unicode="&#xe6;" horiz-adv-x="1638" d="M220.5 187q-19.5 87 2.5 188q18 82 86 130t140.5 60.5t151.5 31.5t110 46q68 61 45 168t-107 119q-43 6 -85 -10.5t-71.5 -43t-53 -54t-33.5 -48.5l-13 -18l-86 96q6 6 17.5 16.5t50.5 39t78 43t102 29.5t123 -1q137 -25 194 -131q86 113 232 135h17h19.5h14.5 q80 -6 141.5 -48t94 -96.5t54 -124t28 -122.5t6.5 -100h-559q0 -188 49 -307t153 -128q66 -4 119 36t74 83l18 41l86 -98q-8 -8 -21.5 -20.5t-58.5 -41t-93 -44t-118.5 -14.5t-140.5 32q-59 25 -135 119q-35 31 -70 30q-27 0 -58.5 -37t-71.5 -82t-85 -57q-23 -14 -125 -7 t-151 54q-51 49 -70.5 136zM348 295q-14 -160 68 -201q43 -23 106.5 -10.5t95.5 51.5q29 37 70 60.5t68 29.5l26 4v418q-14 -43 -62 -64.5t-124 -43t-121 -47.5q-119 -72 -127 -197zM920 555h421q-2 143 -59 257t-152 116q-94 -2 -150 -116t-60 -257z" />
<glyph unicode="&#xe7;" horiz-adv-x="745" d="M45 485v7q0 168 57.5 289.5t163.5 170.5q70 31 140.5 32t122 -21.5t92.5 -48t63 -48.5l21 -22l-87 -99q-4 8 -9 21.5t-26.5 47.5t-45 58.5t-63.5 42t-81 13.5q-96 -10 -149.5 -137t-50.5 -295v-17q-2 -166 51 -294t149 -138q66 -8 122 38t79 95l24 51l87 -98 q-14 -16 -39 -39.5t-103 -62.5t-155 -39l-29 -72q111 -12 143 -33q55 -33 73.5 -75.5t2.5 -114.5q-12 -63 -78.5 -93t-148.5 -24q-43 4 -89 21.5t-69 33.5l-25 15l54 63q6 -12 19 -29.5t51 -47t75 -29.5q59 0 90 50t29 103q-2 74 -49 95.5t-178 21.5l53 123q-33 10 -66 25 q-106 49 -163.5 171.5t-57.5 288.5z" />
<glyph unicode="&#xe8;" horiz-adv-x="798" d="M59 483q0 225 85 363.5t264 138.5q162 0 257 -139t95 -354h-563q0 -193 49 -313t153 -128q66 -4 120 36t75 81l20 43l88 -96q-8 -8 -21 -20.5t-59.5 -40t-94.5 -44t-120.5 -15.5t-142.5 30q-205 84 -205 458zM158 1341q153 -180 317 -274l21 12q-51 41 -131 164 q-25 35 -44.5 78t-27.5 68l-8 26zM197 553h424q-2 143 -59.5 260t-151.5 119q-94 -2 -151.5 -118t-61.5 -261z" />
<glyph unicode="&#xe9;" horiz-adv-x="798" d="M59 483q0 225 85 363.5t264 138.5q162 0 257 -139t95 -354h-563q0 -193 49 -313t153 -128q66 -4 120 36t75 81l20 43l88 -96q-8 -8 -21 -20.5t-59.5 -40t-94.5 -44t-120.5 -15.5t-142.5 30q-205 84 -205 458zM197 553h424q-2 143 -59.5 260t-151.5 119 q-94 -2 -151.5 -118t-61.5 -261zM334 1083q53 41 131 164q25 35 44 78t28 68l8 26l127 -73q-154 -181 -318 -277z" />
<glyph unicode="&#xea;" horiz-adv-x="798" d="M59 483q0 225 85 363.5t264 138.5q162 0 257 -139t95 -354h-563q0 -193 49 -313t153 -128q66 -4 120 36t75 81l20 43l88 -96q-8 -8 -21 -20.5t-59.5 -40t-94.5 -44t-120.5 -15.5t-142.5 30q-205 84 -205 458zM127 1147q74 59 123 115q33 35 54.5 72.5t27.5 58.5l4 18h127 q16 -68 82 -145q57 -68 125 -119l-21 -17q-152 96 -205 154q-20 20 -36 45h-15q-57 -92 -241 -199zM197 553h424q-2 143 -59.5 260t-151.5 119q-94 -2 -151.5 -118t-61.5 -261z" />
<glyph unicode="&#xeb;" horiz-adv-x="798" d="M59 483q0 225 85 363.5t264 138.5q162 0 257 -139t95 -354h-563q0 -193 49 -313t153 -128q66 -4 120 36t75 81l20 43l88 -96q-8 -8 -21 -20.5t-59.5 -40t-94.5 -44t-120.5 -15.5t-142.5 30q-205 84 -205 458zM184 1214.5q0 28.5 20.5 48t49.5 19.5t48.5 -19.5t19.5 -48.5 q0 -27 -19.5 -47t-48.5 -20t-49.5 19.5t-20.5 48zM197 553h424q-2 143 -59.5 260t-151.5 119q-94 -2 -151.5 -118t-61.5 -261zM479 1214q0 29 19.5 48.5t48 19.5t49 -19.5t20.5 -48t-20 -48t-49 -19.5q-27 0 -47.5 20.5t-20.5 46.5z" />
<glyph unicode="&#xec;" horiz-adv-x="499" d="M49 1346q154 -181 318 -275l20 14q-49 39 -131 162q-25 35 -44 78t-28 68l-8 26zM201 958v7q18 20 53 20h2q18 0 32.5 -3t41 -16.5t43 -55.5t16.5 -107v-762q0 -12 14.5 -17.5t26.5 -3.5h14v-14q-20 -14 -55 -14h-2q-16 0 -30.5 3t-42 17.5t-44 55.5t-16.5 106v172v592 q0 12 -13.5 17.5t-27.5 2.5h-12z" />
<glyph unicode="&#xed;" horiz-adv-x="442" d="M49 1083q53 41 131 164q25 35 44.5 78t27.5 68l8 26l127 -73q-153 -181 -317 -277zM51 958v7q18 20 53 20h2q18 0 33 -3t41.5 -16.5t43 -55.5t16.5 -107v-762q0 -12 13 -17.5t28 -3.5h14v-14q-20 -14 -55 -14h-2q-16 0 -30.5 3t-42.5 17.5t-44.5 55.5t-16.5 106v172v592 q0 12 -13 17.5t-25 2.5h-15z" />
<glyph unicode="&#xee;" horiz-adv-x="573" d="M12 1147q74 59 123 115q33 35 54.5 72.5t27.5 58.5l4 18h127q16 -68 82 -145q57 -68 125 -119l-20 -17q-152 96 -205 154q-20 20 -37 45h-14q-57 -92 -242 -199zM160 958v7q18 20 53 20h2q18 0 32.5 -3t41 -16.5t43 -55.5t16.5 -107v-762q0 -12 14.5 -17.5t26.5 -3.5h14 v-14q-20 -14 -55 -14h-2q-16 0 -30.5 3t-42 17.5t-44 55.5t-16.5 106v172v592q0 12 -13.5 17.5t-27.5 2.5h-12z" />
<glyph unicode="&#xef;" horiz-adv-x="491" d="M25 1214.5q0 28.5 20.5 48t49 19.5t48 -19.5t19.5 -48.5q0 -27 -19.5 -47t-48 -20t-49 19.5t-20.5 48zM141 958v7q18 20 54 20h2q18 0 32.5 -3t41 -16.5t43 -55.5t16.5 -107v-762q0 -12 13 -17.5t28 -3.5h14v-14q-20 -14 -55 -14h-2q-16 0 -30.5 3t-42.5 17.5t-44 55.5 t-16 106v172v592q0 12 -13.5 17.5t-25.5 2.5h-15zM319 1214q0 29 19.5 48.5t48.5 19.5t49.5 -19.5t20.5 -48t-20.5 -48t-49.5 -19.5q-27 0 -47.5 20.5t-20.5 46.5z" />
<glyph unicode="&#xf1;" horiz-adv-x="860" d="M57 981q20 12 60 12h2q113 4 129 -139q4 31 57 76t137 51q162 12 244 -85t82 -228v-672q-2 2 -14.5 -1t-33 5t-38.5 22.5t-32.5 54.5t-14.5 95v514q-2 70 -49 137.5t-127 69.5q-37 0 -71 -11.5t-57.5 -29.5t-39 -34.5t-28.5 -34t-15 -19.5v-764h-131v950q0 14 -14.5 19.5 t-28.5 3.5l-15 -2zM182 1186h23q0 37 27.5 62.5t86.5 25.5q49 0 106.5 -44t106.5 -44q61 0 112.5 59.5t51.5 106.5h-22q0 -47 -42 -77t-81 -18q-6 2 -75.5 41t-137.5 39q-61 0 -108.5 -50t-47.5 -101z" />
<glyph unicode="&#xf2;" horiz-adv-x="880" d="M74 489q0 160 57 288t162 175q74 33 162 33q92 0 161 -33q104 -47 162 -175.5t58 -282.5q0 -156 -58.5 -288t-161.5 -179q-76 -33 -161 -33q-82 0 -162 33q-104 47 -161.5 176t-57.5 286zM209 1341q153 -180 317 -274l21 12q-51 41 -131 164q-25 35 -44.5 78t-27.5 68 l-8 26zM211 489q0 -80 23.5 -176t82 -180t138.5 -84q61 0 112 47t80 118t44.5 143.5t15.5 131.5q0 84 -26 181.5t-86 179.5t-140 82t-139.5 -84t-82 -180.5t-22.5 -178.5z" />
<glyph unicode="&#xf3;" horiz-adv-x="880" d="M74 489q0 160 57 288t162 175q74 33 162 33q92 0 161 -33q104 -47 162 -175.5t58 -282.5q0 -156 -58.5 -288t-161.5 -179q-76 -33 -161 -33q-82 0 -162 33q-104 47 -161.5 176t-57.5 286zM211 489q0 -80 23.5 -176t82 -180t138.5 -84q61 0 112 47t80 118t44.5 143.5 t15.5 131.5q0 84 -26 181.5t-86 179.5t-140 82t-139.5 -84t-82 -180.5t-22.5 -178.5zM385 1083q53 41 131 164q25 35 44.5 78t27.5 68l8 26l127 -73q-153 -181 -317 -277z" />
<glyph unicode="&#xf4;" horiz-adv-x="880" d="M74 489q0 160 57 288t162 175q74 33 162 33q92 0 161 -33q104 -47 162 -175.5t58 -282.5q0 -156 -58.5 -288t-161.5 -179q-76 -33 -161 -33q-82 0 -162 33q-104 47 -161.5 176t-57.5 286zM178 1147q74 59 123 115q33 35 54.5 72.5t25.5 58.5l6 18h127q16 -68 82 -145 q57 -68 125 -119l-21 -17q-152 96 -204 154q-20 20 -37 45h-15q-57 -92 -241 -199zM211 489q0 -80 23.5 -176t82 -180t138.5 -84q61 0 112 47t80 118t44.5 143.5t15.5 131.5q0 84 -26 181.5t-86 179.5t-140 82t-139.5 -84t-82 -180.5t-22.5 -178.5z" />
<glyph unicode="&#xf5;" horiz-adv-x="880" d="M74 489q0 160 57 288t162 175q74 33 162 33q92 0 161 -33q104 -47 162 -175.5t58 -282.5q0 -156 -58.5 -288t-161.5 -179q-76 -33 -161 -33q-82 0 -162 33q-104 47 -161.5 176t-57.5 286zM193 1186h22q0 37 27.5 62.5t87.5 25.5q47 0 106.5 -44t106.5 -44 q61 0 112.5 59.5t51.5 106.5h-23q0 -47 -42 -77t-81 -18q-6 2 -75.5 41t-137.5 39q-61 0 -108 -50t-47 -101zM211 489q0 -80 23.5 -176t82 -180t138.5 -84q61 0 112 47t80 118t44.5 143.5t15.5 131.5q0 84 -26 181.5t-86 179.5t-140 82t-139.5 -84t-82 -180.5t-22.5 -178.5z " />
<glyph unicode="&#xf6;" horiz-adv-x="880" d="M74 489q0 160 57 288t162 175q74 33 162 33q92 0 161 -33q104 -47 162 -175.5t58 -282.5q0 -156 -58.5 -288t-161.5 -179q-76 -33 -161 -33q-82 0 -162 33q-104 47 -161.5 176t-57.5 286zM211 489q0 -80 23.5 -176t82 -180t138.5 -84q61 0 112 47t80 118t44.5 143.5 t15.5 131.5q0 84 -26 181.5t-86 179.5t-140 82t-139.5 -84t-82 -180.5t-22.5 -178.5zM236 1214.5q0 28.5 20 48t49 19.5t48.5 -19.5t19.5 -48.5q0 -27 -20.5 -47t-47.5 -20q-29 0 -49 19.5t-20 48zM530 1214q0 29 19.5 48.5t48.5 19.5t49.5 -19.5t20.5 -48t-20.5 -48 t-49.5 -19.5t-48.5 20.5t-19.5 46.5z" />
<glyph unicode="&#xf7;" d="M123 444h997v101h-997v-101zM553 180.5q0 28.5 19.5 49t48 20.5t49 -20.5t20.5 -49t-20 -48t-49 -19.5q-27 0 -47.5 19.5t-20.5 48zM553 811q0 -29 19.5 -49.5t48 -20.5t49 20.5t20.5 49.5t-20 48.5t-49 19.5q-27 0 -47.5 -19.5t-20.5 -48.5z" />
<glyph unicode="&#xf9;" horiz-adv-x="880" d="M29 969q20 16 59 16h18.5t31 -6t40 -18.5t28.5 -41t13 -69.5v-555q4 -66 68.5 -138.5t146.5 -74.5q37 0 73 11t63.5 30.5t47 37t35 35t17.5 19.5v770h131v-987q-2 2 -12.5 0t-29 5t-36.5 19.5t-32.5 43t-18.5 75.5q-6 -6 -6 -10q-88 -129 -217 -137q-164 -12 -262.5 90 t-98.5 229v625q0 14 -14.5 19.5t-28.5 5.5l-14 -2zM197 1341q153 -180 317 -274l21 12q-51 41 -132 164q-25 35 -44 78t-27 68l-8 26z" />
<glyph unicode="&#xfa;" horiz-adv-x="880" d="M29 969q20 16 59 16h18.5t31 -6t40 -18.5t28.5 -41t13 -69.5v-555q4 -66 68.5 -138.5t146.5 -74.5q37 0 73 11t63.5 30.5t47 37t35 35t17.5 19.5v770h131v-987q-2 2 -12.5 0t-29 5t-36.5 19.5t-32.5 43t-18.5 75.5q-6 -6 -6 -10q-88 -129 -217 -137q-164 -12 -262.5 90 t-98.5 229v625q0 14 -14.5 19.5t-28.5 5.5l-14 -2zM373 1083q53 41 131 164q25 35 44 78t27 68l9 26l127 -73q-154 -181 -318 -277z" />
<glyph unicode="&#xfb;" horiz-adv-x="880" d="M29 969q20 16 59 16h18.5t31 -6t40 -18.5t28.5 -41t13 -69.5v-555q4 -66 68.5 -138.5t146.5 -74.5q37 0 73 11t63.5 30.5t47 37t35 35t17.5 19.5v770h131v-987q-2 2 -12.5 0t-29 5t-36.5 19.5t-32.5 43t-18.5 75.5q-6 -6 -6 -10q-88 -129 -217 -137q-164 -12 -262.5 90 t-98.5 229v625q0 14 -14.5 19.5t-28.5 5.5l-14 -2zM166 1147q74 59 123 115q33 35 54.5 72.5t25.5 58.5l6 18h127q16 -68 82 -145q57 -68 125 -119l-21 -17q-152 96 -205 154q-20 20 -37 45h-14q-57 -92 -242 -199z" />
<glyph unicode="&#xfc;" horiz-adv-x="880" d="M29 969q20 16 59 16h18.5t31 -6t40 -18.5t28.5 -41t13 -69.5v-555q4 -66 68.5 -138.5t146.5 -74.5q37 0 73 11t63.5 30.5t47 37t35 35t17.5 19.5v770h131v-987q-2 2 -12.5 0t-29 5t-36.5 19.5t-32.5 43t-18.5 75.5q-6 -6 -6 -10q-88 -129 -217 -137q-164 -12 -262.5 90 t-98.5 229v625q0 14 -14.5 19.5t-28.5 5.5l-14 -2zM223 1214.5q0 28.5 20.5 48t49.5 19.5t48 -19.5t19 -48.5q0 -27 -20 -47t-47 -20q-29 0 -49.5 19.5t-20.5 48zM518 1214q0 29 19.5 48.5t48 19.5t49 -19.5t20.5 -48t-20.5 -48t-49 -19.5t-48 20.5t-19.5 46.5z" />
<glyph unicode="&#xfd;" horiz-adv-x="983" d="M6 938q14 23 49 37q123 49 174 -80l265 -723l301 813h145l-377 -981q-145 -360 -231 -430q-49 -39 -104.5 -51t-80 -8t-73.5 16l30 139q10 -8 26.5 -20t58.5 -14.5t73 34.5q27 33 68 116t69 148l29 68l-356 928q-4 14 -19.5 14t-27.5 -6l-15 -8zM412 1083q53 41 131 164 q25 35 44 78t27 68l9 26l127 -73q-154 -181 -318 -277z" />
<glyph unicode="&#xff;" horiz-adv-x="983" d="M6 938q14 23 49 37q123 49 174 -80l265 -723l301 813h145l-377 -981q-145 -360 -231 -430q-49 -39 -104.5 -51t-80 -8t-73.5 16l30 139q10 -8 26.5 -20t58.5 -14.5t73 34.5q27 33 68 116t69 148l29 68l-356 928q-4 14 -19.5 14t-27.5 -6l-15 -8zM262 1214.5 q0 28.5 20.5 48t49 19.5t48 -19.5t19.5 -48.5q0 -27 -19.5 -47t-48 -20t-49 19.5t-20.5 48zM557 1214q0 29 19.5 48.5t48 19.5t49 -19.5t20.5 -48t-20 -48t-49 -19.5q-27 0 -47.5 20.5t-20.5 46.5z" />
<glyph unicode="&#x152;" horiz-adv-x="2252" d="M37 739q0 240 86 432.5t242 266.5q118 47 239 47h6q123 0 248 -47q154 -74 240 -266.5t86 -432.5q0 -244 -86 -435t-240 -261q-106 -47 -248 -47q-145 0 -245 47q-156 68 -242 260.5t-86 435.5zM213 739q0 -158 43 -313.5t137 -269t217 -113.5h6q119 0 212.5 116.5 t136.5 272.5t43 307q0 154 -43 308.5t-137.5 269.5t-217.5 115h-6q-123 0 -215 -113t-134 -266.5t-42 -313.5zM1309 18v9q57 -8 57 22v1389q0 14 -14.5 20t-28.5 4l-14 -2v10q20 14 57 15h641q63 0 103 -15.5t53.5 -40t15.5 -37t2 -28.5v-4q0 -16 -4 -30.5t-8 -20.5l-4 -6 h-8q8 57 -23 57h-608v-516h469q0 -4 -2 -9.5t-12.5 -20.5t-27 -26.5t-52 -21.5t-82.5 -10h-293v-629h608q14 0 19.5 14.5t5.5 30.5l-2 14h8q16 -20 16 -59v-2v-21.5t-9 -30t-26.5 -33.5t-54.5 -25.5t-88 -12.5h-637q-16 0 -30.5 4t-20.5 8z" />
<glyph unicode="&#x153;" horiz-adv-x="880" d="M-178 489q0 160 58.5 288t162.5 175q70 33 160 33q92 0 162 -33q90 -39 145 -143q86 152 262 176q20 4 51 0q100 -8 170 -66.5t100.5 -142.5t43 -152.5t12.5 -131.5h-563q0 -188 50 -308.5t155 -128.5q66 -6 119 34t73 83l21 43l88 -98q-8 -8 -22.5 -20.5t-60.5 -41 t-94.5 -44t-120 -14.5t-141.5 32q-94 43 -147 137q-55 -100 -141 -139q-72 -31 -162 -31q-88 0 -160 31q-104 47 -162.5 176t-58.5 286zM-31 489q0 -82 20.5 -176t77 -178t136.5 -84q61 0 109 46t74 118t38 142.5t12 132t-12 132t-38 142.5t-74 119t-109 47 q-80 0 -136.5 -83t-77 -178.5t-20.5 -179.5zM588 555h424q-2 145 -59.5 260t-151.5 117q-96 -2 -153.5 -118t-59.5 -259z" />
<glyph unicode="&#x178;" horiz-adv-x="962" d="M-43 1419q10 29 53 54q14 8 32.5 11t43.5 0t50.5 -23.5t43.5 -55.5l279 -586l321 666h181l-435 -754l-2 -563q0 -84 -33.5 -127t-68.5 -45h-33v735l-362 660q-12 27 -27.5 30.5t-24.5 -4.5l-10 -8zM223 1714.5q0 28.5 20.5 48t49.5 19.5t48 -19.5t19 -48.5q0 -27 -20 -47 t-47 -20q-29 0 -49.5 19.5t-20.5 48zM518 1714q0 29 19.5 48.5t48 19.5t49 -19.5t20.5 -48t-20.5 -48t-49 -19.5t-48 20.5t-19.5 46.5z" />
<glyph unicode="&#x2c6;" d="M319 1147q74 59 123 115q33 35 54.5 72.5t27.5 58.5l4 18h127q16 -68 82 -145q57 -68 125 -119l-20 -17q-152 96 -205 154q-20 20 -37 45h-14q-57 -92 -242 -199z" />
<glyph unicode="&#x2dc;" d="M360 1186h23q0 37 27.5 62.5t87.5 25.5q47 0 106.5 -44t106.5 -44q61 0 112 59.5t51 106.5h-22q0 -47 -42 -77t-81 -18q-6 2 -75.5 41t-137.5 39q-61 0 -108.5 -50t-47.5 -101z" />
<glyph unicode="&#x2000;" horiz-adv-x="972" />
<glyph unicode="&#x2001;" horiz-adv-x="1944" />
<glyph unicode="&#x2002;" horiz-adv-x="972" />
<glyph unicode="&#x2003;" horiz-adv-x="1944" />
<glyph unicode="&#x2004;" horiz-adv-x="648" />
<glyph unicode="&#x2005;" horiz-adv-x="486" />
<glyph unicode="&#x2006;" horiz-adv-x="324" />
<glyph unicode="&#x2007;" horiz-adv-x="324" />
<glyph unicode="&#x2008;" horiz-adv-x="243" />
<glyph unicode="&#x2009;" horiz-adv-x="388" />
<glyph unicode="&#x200a;" horiz-adv-x="108" />
<glyph unicode="&#x2010;" horiz-adv-x="552" d="M92 444h350v99h-350v-99z" />
<glyph unicode="&#x2011;" horiz-adv-x="552" d="M92 444h350v99h-350v-99z" />
<glyph unicode="&#x2012;" horiz-adv-x="552" d="M92 444h350v99h-350v-99z" />
<glyph unicode="&#x2013;" horiz-adv-x="1226" d="M92 444h1024v99h-1024v-99z" />
<glyph unicode="&#x2014;" horiz-adv-x="2250" d="M92 444h2048v99h-2048v-99z" />
<glyph unicode="&#x201d;" horiz-adv-x="634" d="M66 1401q-2 -41 21.5 -62.5t57.5 -21.5q55 0 68 41q14 -29 11 -75t-13 -77q-12 -37 -33.5 -59.5t-35 -26.5t-40.5 -8v-29q100 20 142 86q47 78 41 185q-4 57 -38 94t-87 37q-41 0 -67.5 -26.5t-26.5 -57.5zM340 1401q-2 -37 20.5 -60.5t59.5 -23.5q55 0 67 41 q14 -29 11.5 -75t-13.5 -77q-12 -37 -33.5 -59.5t-34.5 -26.5t-40 -8v-29q100 20 141 86q51 82 41 185q-4 57 -38 94t-87 37q-41 0 -67.5 -26.5t-26.5 -57.5z" />
<glyph unicode="&#x2022;" horiz-adv-x="669" d="M188 487.5q0 -59.5 42 -102.5t104 -43q59 0 102 43t43 102.5t-43 102.5t-102 43q-61 0 -103.5 -43t-42.5 -102.5z" />
<glyph unicode="&#x202f;" horiz-adv-x="388" />
<glyph unicode="&#x205f;" horiz-adv-x="486" />
<glyph unicode="&#x2122;" horiz-adv-x="2170" d="M31 1348v4q0 20 3 33.5t17.5 36t54 35.5t103.5 13h596q14 0 20 15.5t6 30.5l-2 16h9q16 -27 16 -64q0 -63 -35 -88q-43 -35 -143 -37h-154v-1146q0 -59 -16.5 -101.5t-40 -61t-48 -27.5t-40.5 -9h-17v1345h-282q-14 0 -19.5 -14t-5.5 -26l2 -15l-8 -2q-16 25 -16 62z M903 1462v8q23 14 62 15q125 0 176 -123q37 -90 195.5 -523t174.5 -481q14 43 175 478.5t198 525.5q51 123 176 123q16 0 31.5 -4t22.5 -8l6 -5v-8q-59 8 -60 -22v-1438h-16t-37 9t-47.5 25.5t-36.5 57.5t-16 96v906l-316 -906h-157l-312 899v-899q0 -84 -40 -131t-78 -53 l-41 -6v1436q0 18 -14.5 25t-30.5 5z" />
<glyph unicode="&#x25fc;" horiz-adv-x="983" d="M0 0v983h983v-983h-983z" />
</font>
</defs>
</svg>
